<svg width="101" height="100" viewBox="0 0 101 100" fill="none" xmlns="http://www.w3.org/2000/svg">
<path d="M13.1613 69.6231C15.9104 66.838 18.6602 64.0535 21.4107 61.2696C22.4878 60.1798 23.5746 59.0997 24.6498 58.0215C24.2357 57.1876 23.8877 56.377 23.4288 55.6368C23.2908 55.4161 22.8455 55.295 22.5306 55.295C20.6913 55.295 19.2584 54.5352 18.3991 52.9122C18.0419 52.2233 17.8496 51.4603 17.8372 50.6837C17.7886 45.6055 17.7983 40.5274 17.8158 35.4493C17.8158 32.7852 19.76 30.8321 22.4275 30.8262C23.0691 30.8262 23.3783 30.6309 23.6796 30.045C28.5694 20.461 36.2978 14.7247 46.9639 13.3829C59.796 11.7696 71.8153 18.5255 77.3992 30.2364C77.6092 30.6797 77.8405 30.8223 78.3227 30.8223C81.311 30.8223 83.1619 32.7227 83.1697 35.7325C83.1697 36.0997 83.1833 36.4669 83.1697 36.8321C83.1596 37.2023 83.0098 37.5548 82.7505 37.8181C82.4913 38.0814 82.1421 38.2358 81.7737 38.2501C81.4026 38.2577 81.0422 38.1244 80.7646 37.8767C80.4871 37.6291 80.3128 37.2853 80.2767 36.9141C80.2261 36.4317 80.265 35.9376 80.2514 35.4512C80.2183 34.4063 79.6001 33.7833 78.5599 33.7422C78.3888 33.7422 78.2197 33.7422 78.0486 33.7422H22.933C21.224 33.7422 20.7283 34.2422 20.7283 35.9649C20.7283 40.7253 20.7283 45.4857 20.7283 50.2462C20.7283 51.8282 21.2454 52.3438 22.8281 52.3438H78.1633C79.7342 52.3438 80.2417 51.8223 80.2592 50.2344C80.2449 49.8706 80.2875 49.5068 80.3855 49.1563C80.4754 48.86 80.6659 48.6046 80.9238 48.4348C81.1817 48.2649 81.4907 48.1912 81.7971 48.2266C82.1051 48.2273 82.4038 48.333 82.6443 48.5264C82.8848 48.7197 83.0529 48.9893 83.1211 49.2911C83.7394 51.5411 82.462 54.1446 80.298 54.9415C79.6545 55.1778 78.9254 55.211 78.2313 55.2579C77.8425 55.2852 77.6208 55.3672 77.4536 55.7422C77.1192 56.4962 76.7245 57.2247 76.2676 58.1348C76.4854 58.2623 76.6917 58.4087 76.884 58.5723C80.2747 61.9721 83.6609 65.3712 87.0426 68.7696C87.5637 69.293 88.0148 69.8165 87.727 70.6251C87.4393 71.4337 86.7782 71.6251 85.9966 71.6934C82.2481 72.0235 78.4996 72.3829 74.7511 72.7364C74.4653 72.7637 74.1814 72.8126 73.8548 72.8575C73.6507 75.0059 73.4465 77.1075 73.2463 79.2169C73.0518 81.2325 72.8574 83.2481 72.6883 85.2715C72.6299 85.9727 72.3791 86.5001 71.7161 86.7559C71.0065 87.0274 70.4621 86.7383 69.9663 86.2266C67.8277 84.0613 65.6806 81.9024 63.525 79.7501C61.2405 77.4551 58.9483 75.1641 56.6754 72.8555C56.5535 72.7107 56.3935 72.6033 56.2137 72.5456C56.0339 72.488 55.8415 72.4823 55.6586 72.5294C52.2555 73.1426 48.7708 73.1426 45.3677 72.5294C45.1733 72.4818 44.9694 72.4902 44.7796 72.5538C44.5897 72.6174 44.4216 72.7335 44.2945 72.8887C39.9044 77.3158 35.5026 81.7331 31.0892 86.1407C30.738 86.4976 30.2883 86.7405 29.7982 86.838C29.0108 86.9512 28.4061 86.2833 28.3186 85.3751C27.9298 81.3672 27.55 77.3594 27.1793 73.3516C27.1657 73.209 27.1521 73.0645 27.1307 72.8497C25.6919 72.7071 24.2746 72.5587 22.8533 72.4258C20.1314 72.17 17.388 71.9102 14.6544 71.6758C13.9409 71.6153 13.5307 71.1915 13.169 70.6544L13.1613 69.6231ZM74.37 55.3243H26.6213C30.1773 62.8145 38.9847 70.002 50.3683 70.0528C62.5821 70.1172 71.0123 62.2051 74.37 55.3243ZM74.405 30.7813C70.1744 22.2969 60.4687 15.0391 47.9341 16.1758C37.1008 17.1524 29.3918 24.6173 26.6621 30.7813H74.405ZM70.0538 81.9532C70.0849 81.7442 70.1316 81.5294 70.151 81.3126C70.4543 78.0834 70.7544 74.8542 71.0512 71.6251C71.1484 70.5665 71.5256 70.127 72.5716 70.0176C74.9864 69.7696 77.405 69.5528 79.8217 69.3204C80.8872 69.2188 81.9604 69.1094 82.9928 69.0079L74.6325 60.6094C70.7965 65.8087 65.792 69.4942 59.6813 71.5372L70.0538 81.9532ZM30.9258 81.9922L41.3314 71.5411C35.3437 69.5839 30.1206 65.7841 26.4016 60.6797L18.0744 69.0176C18.1133 69.0176 18.228 69.0391 18.3446 69.0508C21.7276 69.377 25.1125 69.6934 28.4936 70.0274C29.3743 70.1153 29.839 70.5821 29.9226 71.4102C30.084 73.0118 30.222 74.6153 30.3717 76.2188C30.5525 78.1407 30.7334 80.0567 30.9161 81.9981L30.9258 81.9922Z" fill="#FF7D04"/>
<path d="M60.7953 36.1621C62.6129 36.1693 64.3538 36.899 65.6376 38.1916C66.9214 39.4841 67.6438 41.2346 67.6468 43.0606C67.6468 46.8652 64.4758 50.0137 60.7098 49.9629C56.9438 49.9121 53.8524 46.7637 53.9049 43.0117C53.9203 41.1874 54.6535 39.4432 55.9444 38.1599C57.2353 36.8766 58.9792 36.1584 60.7953 36.1621ZM60.7428 39.0918C59.6983 39.097 58.6983 39.5177 57.9618 40.2619C57.2254 41.0061 56.8125 42.0132 56.8135 43.0625C56.8124 43.8505 57.0443 44.6211 57.4799 45.2764C57.9154 45.9317 58.535 46.4423 59.2599 46.7433C59.9848 47.0443 60.7824 47.1221 61.5515 46.967C62.3205 46.8118 63.0263 46.4306 63.5793 45.8718C64.1323 45.313 64.5076 44.6017 64.6575 43.8282C64.8074 43.0547 64.7252 42.254 64.4213 41.5276C64.1174 40.8011 63.6055 40.1818 62.9505 39.7481C62.2956 39.3144 61.5272 39.086 60.7428 39.0918Z" fill="#FF7D04"/>
<path d="M47.3645 36.0684C48.6915 36.1825 49.9632 36.6549 51.0449 37.4355C51.8635 38.0215 52.0443 38.8652 51.5368 39.584C51.0294 40.3027 50.2264 40.3945 49.4137 39.8535C48.601 39.3125 47.7825 38.9648 46.8162 39.1582C46.4887 39.2228 46.1872 39.3823 45.9491 39.6172C45.5835 40.0078 45.7546 40.4766 46.2815 40.7051C47.2634 41.1211 48.2646 41.4863 49.2445 41.916C50.6969 42.543 51.8323 43.4902 52.1045 45.1543C52.4564 47.3027 50.9497 49.3652 48.6399 49.8203C46.3884 50.2637 44.4111 49.625 42.7702 48.0195C42.0781 47.3398 42.0489 46.4922 42.6438 45.8711C43.2388 45.25 44.0826 45.2754 44.7825 45.9219C45.7138 46.7832 46.7792 47.2031 48.0449 46.9316C48.6282 46.8086 49.1162 46.5059 49.2115 45.873C49.3107 45.209 48.7818 44.9238 48.2977 44.7012C47.2789 44.248 46.2349 43.8535 45.2063 43.418C43.651 42.7598 42.8363 41.5977 42.8421 40.0742C42.8437 39.2992 43.0831 38.5435 43.5277 37.9102C43.9724 37.2769 44.6007 36.7967 45.3269 36.5352C45.9763 36.3008 46.684 36.2207 47.3645 36.0684Z" fill="#FF7D04"/>
<path d="M39.1558 43.0742C39.1558 44.7598 39.1558 46.4434 39.1558 48.127C39.1558 49.2774 38.6212 49.9473 37.7249 49.9609C36.8286 49.9746 36.2434 49.2754 36.2414 48.1621C36.2414 44.7207 36.2414 41.2787 36.2414 37.8359C36.2414 36.9844 36.6186 36.4258 37.2563 36.2305C37.894 36.0352 38.6173 36.2656 38.9089 36.8281C39.0651 37.1547 39.1456 37.5127 39.1442 37.875C39.1695 39.6074 39.1558 41.3418 39.1558 43.0742Z" fill="#FF7D04"/>
<path d="M81.7154 41.6132C81.9035 41.6088 82.0905 41.6421 82.2656 41.7112C82.4406 41.7804 82.6002 41.8839 82.7349 42.0158C82.8697 42.1477 82.9768 42.3052 83.0501 42.4792C83.1235 42.6533 83.1615 42.8402 83.1619 43.0292C83.1678 43.4106 83.0248 43.7791 82.7635 44.0558C82.5022 44.3325 82.1434 44.4954 81.764 44.5097C81.3715 44.5133 80.9935 44.361 80.7124 44.0859C80.4312 43.8108 80.2697 43.4351 80.2631 43.0409C80.2702 42.6591 80.4265 42.2954 80.6982 42.0283C80.9699 41.7612 81.3353 41.6121 81.7154 41.6132Z" fill="#FF7D04"/>
<path d="M49.5303 67.1504C44.3159 67.0723 38.9556 65.0117 34.3749 60.9102C33.813 60.4082 33.5253 59.834 33.8267 59.0977C34.0833 58.4649 34.6044 58.0938 35.2635 58.2246C35.7264 58.3449 36.1526 58.5784 36.5039 58.9043C38.6212 60.7481 40.962 62.2246 43.6373 63.0625C51.3327 65.5 58.2795 64.1068 64.4777 58.8828C64.5516 58.8203 64.6216 58.752 64.6955 58.6875C65.4732 58.0332 66.3228 58.0293 66.8983 58.6738C67.4738 59.3184 67.3766 60.2012 66.6436 60.8692C64.9726 62.401 63.0939 63.6872 61.0636 64.6895C57.7137 66.3379 54.1732 67.1504 49.5303 67.1504Z" fill="#FF7D04"/>
<path d="M50.8408 18.9453C56.6424 19.0332 62.0591 21.0938 66.6553 25.2539C67.2969 25.8398 67.433 26.5098 67.0966 27.1523C66.9512 27.4378 66.7122 27.6641 66.4201 27.7932C66.1279 27.9224 65.8004 27.9464 65.4926 27.8613C65.1516 27.7412 64.8395 27.5502 64.5769 27.3008C60.4006 23.6074 55.5245 21.7734 49.9697 21.9023C44.9147 22.0195 40.4429 23.7969 36.6089 27.1309C36.4611 27.2578 36.325 27.3984 36.1734 27.5215C35.4793 28.0723 34.618 28.0332 34.0775 27.4316C33.9418 27.2893 33.8377 27.1196 33.7722 26.9338C33.7067 26.748 33.6812 26.5503 33.6973 26.3539C33.7135 26.1574 33.771 25.9667 33.866 25.7942C33.9611 25.6218 34.0914 25.4716 34.2486 25.3535C35.7184 24.2012 37.1649 22.9961 38.7748 22.0527C42.3658 19.9316 46.3068 18.9805 50.8408 18.9453Z" fill="#FF7D04"/>
</svg>
