<svg width="100" height="100" viewBox="0 0 100 100" fill="none" xmlns="http://www.w3.org/2000/svg">
<path d="M64.1602 85.6934H62.9883C62.4531 85.3691 61.7695 85.1602 61.4102 84.6973C60.3184 83.291 58.9785 82.791 57.2285 83.0098C55.4785 83.2285 54.125 82.5469 53.5762 80.7012H17.0215C14.4531 80.7012 12.8906 79.1641 12.8906 76.627C12.8906 56.0111 12.8906 35.3913 12.8906 14.7676C12.8833 14.4002 12.9141 14.033 12.9824 13.6719C13.3262 12.041 14.4531 11.168 15.9668 10.6934H55.5176C56.1231 11.168 56.7793 11.5898 57.3242 12.125C59.6563 14.416 61.9356 16.7617 64.2774 19.041C64.6518 19.3879 64.9463 19.8122 65.1402 20.2844C65.3342 20.7566 65.423 21.2654 65.4004 21.7754C65.3711 27.3145 65.3867 32.8516 65.3867 38.3906V39.3672C65.9375 39.1328 66.3418 38.9766 66.7285 38.7949C68.3242 38.0137 69.9317 37.9863 71.5117 38.7949C72.2236 39.1679 73.0276 39.3286 73.8281 39.2578C75.7168 39.1035 77.2305 39.8145 78.4746 41.2402C78.8861 41.716 79.4126 42.0785 80.0039 42.293C81.9199 42.918 83.1289 44.1504 83.7891 46.0469C83.9982 46.6389 84.3528 47.1688 84.8203 47.5879C86.3145 48.8906 86.9844 50.4785 86.8418 52.4492C86.806 52.9322 86.8603 53.4177 87.002 53.8809C87.2422 54.6387 87.5879 55.3652 87.8867 56.1035V57.7148C87.6563 58.3242 87.3828 58.9238 87.2051 59.5488C87.0274 60.1738 86.8145 60.8203 86.8516 61.4473C86.9551 63.3887 86.3399 64.9746 84.8613 66.248C84.5 66.5586 84.0996 66.9375 83.957 67.3652C83.4277 68.9648 82.6426 70.3398 81.0742 71.1445C81.2012 71.4512 81.2891 71.6738 81.3848 71.8945C82.4043 74.2383 83.4473 76.5723 84.4414 78.9258C85.3066 80.9746 83.9961 82.9648 81.7695 83.0273C80.918 83.0508 80.0606 82.9863 79.2129 83.0527C78.8208 83.0898 78.4494 83.2459 78.1484 83.5C77.2441 84.2988 76.5176 85.3203 75.2891 85.6953H74.1172C72.9277 85.293 72.2344 84.4414 71.7598 83.2949C71.0449 81.5684 70.2285 79.8809 69.4512 78.1797C69.3672 77.9961 69.2559 77.8242 69.1074 77.5469C68.2031 79.5371 67.3086 81.3965 66.5137 83.2969C66.041 84.4395 65.3496 85.2891 64.1602 85.6934ZM62.8789 22.0215C62.7925 21.996 62.7044 21.9764 62.6152 21.9629C61.1016 21.9629 59.5879 21.9629 58.0742 21.9512C55.7305 21.9297 54.1856 20.3887 54.1543 18.0449C54.1387 16.873 54.1543 15.7012 54.1543 14.5293V13.1895H53.3926C41.2832 13.1895 29.1738 13.1895 17.0645 13.1895C15.7832 13.1895 15.3848 13.6016 15.3848 14.9199V76.4434C15.3848 77.8281 15.7754 78.2012 17.1817 78.2012H34.6836C40.9082 78.2012 47.1348 78.1895 53.3594 78.2168C53.9746 78.2168 54.2539 78.0215 54.4766 77.4707C55.084 75.9824 55.75 74.5176 56.3887 73.041C56.6582 72.4219 56.9219 71.8008 57.1992 71.1484C55.7129 70.3359 54.8945 69.1016 54.3965 67.5723C54.2285 67.0547 53.7832 66.5781 53.3594 66.2051C51.9688 64.9668 51.2871 63.4512 51.4395 61.5957C51.5101 60.817 51.3527 60.0345 50.9863 59.3438C50.5852 58.6115 50.374 57.7905 50.3719 56.9556C50.3699 56.1207 50.5771 55.2986 50.9746 54.5645C51.3523 53.8527 51.5151 53.0466 51.4434 52.2441C51.2988 50.4219 51.9824 48.9375 53.332 47.6914C53.8608 47.1998 54.2703 46.5939 54.5293 45.9199C54.8108 45.0859 55.2807 44.328 55.9026 43.7051C56.5245 43.0821 57.2817 42.611 58.1152 42.3281C58.7676 42.084 59.3164 41.5586 59.9063 41.1562C60.6875 40.623 61.4024 39.9844 62.2344 39.5781C62.7383 39.3281 62.8906 39.1133 62.8887 38.5801C62.8691 33.3066 62.877 28.0332 62.877 22.7598L62.8789 22.0215ZM65.1172 41.8711C63.3594 41.5273 62.3828 42.125 61.4609 43.1191C60.8262 43.7988 59.9121 44.291 59.0352 44.6543C57.9883 45.084 57.2207 45.6641 56.9063 46.7734C56.5938 47.8867 55.9308 48.8695 55.0156 49.5762C54.6206 49.868 54.3114 50.2609 54.1207 50.7136C53.93 51.1662 53.8647 51.6618 53.9317 52.1484C54.0771 53.3194 53.8459 54.5063 53.2715 55.5371C53.0194 55.9586 52.8863 56.4405 52.8863 56.9316C52.8863 57.4228 53.0194 57.9047 53.2715 58.3262C53.851 59.3566 54.0844 60.5458 53.9375 61.7188C53.8649 62.193 53.9212 62.6781 54.1006 63.1231C54.28 63.5682 54.5758 63.9567 54.957 64.2481C55.94 65.0253 56.6489 66.0963 56.9805 67.3047C57.0932 67.7341 57.3173 68.1262 57.63 68.4414C57.9428 68.7565 58.3332 68.9836 58.7617 69.0996C59.9891 69.4489 61.0769 70.1726 61.8731 71.1699C62.5234 71.9648 63.4043 72.2637 64.4238 72.1328C65.4718 71.9755 66.5423 72.1691 67.4688 72.6836C68.6289 73.3418 69.6777 73.2148 70.8711 72.6836C71.7881 72.3077 72.7728 72.1248 73.7637 72.1465C74.9356 72.1602 75.8692 71.877 76.5977 70.9609C77.2831 70.0918 78.2291 69.4655 79.2969 69.1738C79.7979 69.0528 80.2565 68.7973 80.623 68.4349C80.9896 68.0724 81.2502 67.6168 81.377 67.1172C81.6763 66.0274 82.3162 65.0618 83.2031 64.3613C83.6277 64.0468 83.9582 63.6221 84.1589 63.1333C84.3596 62.6444 84.4229 62.1101 84.3418 61.5879C84.2043 60.5139 84.4166 59.4242 84.9473 58.4805C85.5332 57.4277 85.5039 56.4023 84.9121 55.3555C84.3901 54.4351 84.1843 53.3689 84.3262 52.3203C84.4668 51.1855 84.1133 50.2559 83.2129 49.541C82.3344 48.8665 81.6979 47.9257 81.3985 46.8594C81.0742 45.7012 80.2969 45.0801 79.1856 44.6348C78.2613 44.2764 77.4233 43.7266 76.7266 43.0215C75.8418 42.084 74.9102 41.6113 73.6348 41.7539C72.5822 41.8662 71.5212 41.6404 70.6055 41.1094C69.6289 40.5645 68.6914 40.6387 67.6758 41.0859C66.7598 41.4844 65.7559 41.6816 65.1172 41.8711ZM78.8145 72.2656C78.5469 72.5605 78.3613 72.7773 78.1641 72.9844C77.0215 74.1875 75.6055 74.8066 73.9649 74.6348C72.8418 74.5195 71.9258 74.8535 70.9649 75.4277C72.1016 77.9297 73.2246 80.4102 74.3574 82.8867C74.5527 83.291 74.8262 83.2598 75.1113 82.9785C75.6484 82.4473 76.1934 81.9238 76.7129 81.375C76.9669 81.0944 77.2799 80.8736 77.6295 80.7284C77.979 80.5832 78.3563 80.5172 78.7344 80.5352C79.6348 80.5566 80.5371 80.5352 81.4395 80.5352C82.2442 80.5352 82.3457 80.3691 82.0254 79.6191C81.127 77.5436 80.2246 75.4681 79.3184 73.3926C79.1641 73.0352 79.0059 72.6895 78.8145 72.2656ZM59.4785 72.2949C59.3418 72.5801 59.2363 72.791 59.1426 73.0078C58.2546 75.0365 57.3679 77.0664 56.4824 79.0977C55.8535 80.5391 55.8535 80.5293 57.4336 80.541C61.2129 80.5703 60.332 80.1816 62.9668 82.7871C63 82.8203 63.0371 82.8535 63.0703 82.8887C63.502 83.3711 63.7813 83.2422 64.0274 82.6934C64.8086 80.9355 65.6113 79.1875 66.4063 77.4375C66.707 76.7754 67.0059 76.1133 67.3164 75.4258C66.4336 74.9277 65.6172 74.502 64.5977 74.627C62.7734 74.8496 61.25 74.2227 60.0137 72.8691L59.4785 72.2949ZM60.8594 19.457L56.668 15.2578C56.668 16.2539 56.6289 17.3164 56.6817 18.3828C56.7149 19.0645 57.2149 19.4238 57.8535 19.4531C58.877 19.4805 59.8945 19.4473 60.8652 19.4473L60.8594 19.457Z" fill="#FF7D04"/>
<path d="M39.168 19.4629C42.1211 19.4629 45.0723 19.4394 48.0254 19.4629C48.8644 19.4774 49.6731 19.779 50.3168 20.3174C50.9604 20.8558 51.4001 21.5986 51.5625 22.4218C51.8965 24.1797 51.0625 25.8906 49.4512 26.5801C48.9139 26.8073 48.3372 26.9268 47.7539 26.9316C42.0247 26.9577 36.291 26.9616 30.5527 26.9433C28.3066 26.9433 26.6465 25.3125 26.6582 23.164C26.6582 21.0468 28.2988 19.4707 30.5371 19.4531C33.416 19.4394 36.2949 19.4531 39.1738 19.4531L39.168 19.4629ZM39.1289 21.9551H36.7188C34.6465 21.9551 32.5723 21.9551 30.5 21.9551C29.6797 21.9551 29.1582 22.457 29.1543 23.1797C29.1504 23.9023 29.6797 24.4004 30.4824 24.4453C30.6777 24.4453 30.873 24.4453 31.0684 24.4453H46.4258C46.9141 24.4453 47.4023 24.4707 47.8887 24.4453C48.7617 24.3847 49.291 23.6855 49.0762 22.8828C48.8809 22.1816 48.373 21.9531 47.6895 21.9551C44.8359 21.959 41.9922 21.9551 39.1289 21.9551Z" fill="#FF7D04"/>
<path d="M39.1875 34.4356H22.2813C22.0371 34.4356 21.791 34.4473 21.5488 34.4239C21.2417 34.4011 20.9537 34.2661 20.7397 34.0445C20.5257 33.823 20.4008 33.5305 20.3887 33.2227C20.3885 32.9146 20.4997 32.6168 20.7018 32.3843C20.9038 32.1517 21.1832 32 21.4883 31.9571C21.6829 31.9374 21.8787 31.9316 22.0742 31.9395H56.1816C56.4008 31.929 56.6204 31.9382 56.8379 31.9669C57.1422 32.015 57.4173 32.176 57.6084 32.4178C57.7995 32.6595 57.8926 32.9643 57.8691 33.2716C57.857 33.5668 57.7366 33.8472 57.5309 34.0594C57.3252 34.2716 57.0486 34.4006 56.7539 34.4219C56.5108 34.4392 56.267 34.4438 56.0234 34.4356H39.1875Z" fill="#FF7D04"/>
<path d="M37.9433 38.2052H53.5293C53.7971 38.1924 54.0654 38.2002 54.332 38.2286C54.6028 38.2542 54.8556 38.3757 55.0447 38.5713C55.2338 38.7668 55.3468 39.0235 55.3633 39.295C55.4141 39.5632 55.3654 39.8407 55.2263 40.0755C55.0871 40.3103 54.8671 40.4863 54.6074 40.5704C54.3069 40.6679 53.9914 40.7109 53.6758 40.6973C43.1641 40.6973 32.6523 40.6973 22.1406 40.6973C21.8735 40.708 21.606 40.687 21.3437 40.6349C21.0539 40.5716 20.7975 40.4038 20.6235 40.1635C20.4494 39.9232 20.37 39.6272 20.4004 39.3321C20.498 38.6856 20.8691 38.2677 21.5547 38.2149C21.8945 38.1895 22.2363 38.2032 22.5781 38.2032L37.9433 38.2052Z" fill="#FF7D04"/>
<path d="M34.8008 63.1836H47.2383C47.5308 63.1734 47.8237 63.1897 48.1133 63.2325C48.4016 63.2856 48.6614 63.4403 48.8455 63.6684C49.0296 63.8966 49.1259 64.1832 49.1169 64.4762C49.108 64.7693 48.9943 65.0494 48.7966 65.2659C48.5988 65.4824 48.3301 65.6209 48.0391 65.6563C47.7724 65.6837 47.5043 65.6935 47.2363 65.6856H22.2852C22.0172 65.6938 21.749 65.6833 21.4824 65.6543C21.1876 65.6243 20.9137 65.488 20.7119 65.2709C20.5101 65.0538 20.3943 64.7707 20.3859 64.4744C20.3775 64.1781 20.4772 63.8889 20.6664 63.6607C20.8556 63.4326 21.1214 63.281 21.4141 63.2344C21.7029 63.1911 21.9952 63.1741 22.2871 63.1836C26.459 63.181 30.6302 63.181 34.8008 63.1836Z" fill="#FF7D04"/>
<path d="M34.1426 56.957C38.1914 56.957 42.2402 56.9473 46.2891 56.9687C46.6797 56.9687 47.1777 57.0469 47.4277 57.293C47.6777 57.5391 47.9043 58.1016 47.8184 58.4375C47.7168 58.8086 47.2871 59.1387 46.9277 59.375C46.7148 59.5137 46.3594 59.4512 46.0684 59.4512C38.1165 59.4512 30.1654 59.4512 22.2148 59.4512C22.0938 59.4512 21.9707 59.4512 21.8496 59.4512C20.9551 59.4238 20.3691 58.9004 20.3945 58.1543C20.4199 57.4082 20.9707 56.959 21.8535 56.957C25.9486 56.9531 30.0449 56.9531 34.1426 56.957Z" fill="#FF7D04"/>
<path d="M38.4648 53.1855C35.8815 53.1855 33.2969 53.1855 30.7109 53.1855C29.707 53.1855 29.1484 52.7383 29.1484 51.9492C29.1484 51.1602 29.7187 50.6934 30.7012 50.6914C35.9186 50.6914 41.1367 50.6914 46.3555 50.6914C47.3105 50.6914 47.9062 51.2031 47.8867 51.9746C47.8672 52.7461 47.3008 53.1816 46.3633 53.1836C43.7318 53.1875 41.099 53.1881 38.4648 53.1855Z" fill="#FF7D04"/>
<path d="M28.5 71.9355C26.3073 71.9355 24.1146 71.9355 21.9219 71.9355C20.9609 71.9355 20.3594 71.4297 20.3887 70.6602C20.418 69.8906 20.9922 69.4434 21.914 69.4434C26.3242 69.4434 30.7344 69.4434 35.1445 69.4434C36.0723 69.4434 36.625 69.9238 36.6269 70.6914C36.6289 71.459 36.0879 71.9316 35.1523 71.9355C32.9355 71.9395 30.7168 71.9355 28.5 71.9355Z" fill="#FF7D04"/>
<path d="M28.4844 46.9375H21.8203C21.209 46.9375 20.6367 46.7559 20.5137 46.1191C20.4732 45.9034 20.4756 45.6817 20.5209 45.4669C20.5661 45.2521 20.6533 45.0483 20.7774 44.8672C21.0117 44.5898 21.5449 44.4766 21.9492 44.4531C23.2402 44.4023 24.5371 44.4336 25.8301 44.4336C28.8093 44.4336 31.7878 44.4336 34.7656 44.4336C35.0332 44.4247 35.3011 44.4384 35.5664 44.4746C35.8729 44.5124 36.1532 44.6663 36.3494 44.9048C36.5457 45.1432 36.6429 45.4478 36.6211 45.7559C36.6138 46.052 36.4955 46.3346 36.2897 46.5477C36.0838 46.7607 35.8055 46.8887 35.5098 46.9062C35.12 46.9376 34.7288 46.9474 34.3379 46.9355C32.3887 46.9394 30.4375 46.9401 28.4844 46.9375Z" fill="#FF7D04"/>
<path d="M44.7774 46.9374C43.4102 46.9374 42.043 46.9471 40.6758 46.9374C39.6992 46.9374 39.1133 46.4413 39.1309 45.6698C39.1485 44.8983 39.7168 44.4432 40.6485 44.4393C43.4043 44.4296 46.1582 44.4237 48.9121 44.4393C50.084 44.4393 50.791 45.4823 50.1641 46.3163C49.846 46.6623 49.4066 46.8722 48.9375 46.9022C47.5586 46.9823 46.168 46.9374 44.7774 46.9374Z" fill="#FF7D04"/>
<path d="M23.5195 53.1836C22.9121 53.1836 22.3047 53.1973 21.6973 53.1836C20.9434 53.1602 20.416 52.6621 20.3906 51.9863C20.3868 51.8155 20.4179 51.6457 20.4819 51.4873C20.5458 51.3289 20.6414 51.1852 20.7628 51.0649C20.8841 50.9447 21.0287 50.8504 21.1877 50.7879C21.3467 50.7253 21.5167 50.6958 21.6875 50.7012C22.9023 50.6764 24.1172 50.6764 25.332 50.7012C26.1133 50.7168 26.6602 51.2871 26.6406 51.9766C26.6211 52.666 26.0938 53.1484 25.3418 53.1836C24.7344 53.1992 24.127 53.1836 23.5195 53.1836Z" fill="#FF7D04"/>
<path d="M69.1211 44.4375C75.8516 44.3418 81.5391 49.9473 81.6211 56.7578C81.7051 63.6523 76.2168 69.3515 69.416 69.4336C62.418 69.5195 56.7598 64.0762 56.6621 57.164C56.5625 50.1484 62.0547 44.5312 69.1211 44.4375ZM69.2324 46.9433C67.2549 46.9222 65.3156 47.4879 63.6596 48.5689C62.0035 49.6498 60.7052 51.1975 59.9287 53.0163C59.1522 54.8351 58.9324 56.8433 59.2971 58.7869C59.6618 60.7306 60.5947 62.5225 61.9777 63.9361C63.3607 65.3497 65.1317 66.3215 67.067 66.7286C69.0022 67.1357 71.0147 66.9599 72.85 66.2233C74.6853 65.4868 76.2611 64.2226 77.378 62.5906C78.4949 60.9587 79.1029 59.0321 79.125 57.0547C79.1418 55.7406 78.8989 54.4361 78.4104 53.216C77.9219 51.9959 77.1973 50.8843 76.2782 49.9449C75.3591 49.0055 74.2636 48.2568 73.0546 47.7417C71.8455 47.2266 70.5466 46.9553 69.2324 46.9433Z" fill="#FF7D04"/>
<path d="M66.6582 58.9159L71.541 54.0331C71.7228 53.8362 71.9186 53.6528 72.127 53.4843C72.3578 53.2992 72.649 53.2062 72.9444 53.2232C73.2398 53.2401 73.5184 53.3658 73.7266 53.5761C73.943 53.7773 74.0787 54.0506 74.1082 54.3447C74.1377 54.6388 74.0589 54.9335 73.8867 55.1737C73.8024 55.2932 73.7069 55.4044 73.6016 55.5058C71.6367 57.4732 69.6706 59.4381 67.7031 61.4003C66.9453 62.1542 66.3359 62.1425 65.5547 61.4003C65.2402 61.0956 64.9277 60.787 64.625 60.4706C64.0391 59.8612 63.9902 59.1815 64.4707 58.6483C64.9512 58.1151 65.6777 58.0976 66.3496 58.6679C66.4375 58.7128 66.5078 58.789 66.6582 58.9159Z" fill="#FF7D04"/>
</svg>
