<svg width="100" height="100" viewBox="0 0 100 100" fill="none" xmlns="http://www.w3.org/2000/svg">
<path d="M48.8027 79.3124H47.8808C38.5058 79.3124 29.1308 79.3124 19.7559 79.3124C16.7031 79.3124 14.3476 77.4257 13.7754 74.5311C13.6945 74.0499 13.6605 73.5619 13.6738 73.0741C13.6725 56.1288 13.6719 39.1848 13.6719 22.2421C13.6719 18.4706 16.1269 16.037 19.9219 16.0311C21.6055 16.0311 23.291 16.0311 24.9746 16.0311C25.3769 16.0311 25.6211 15.9491 25.832 15.5507C26.4961 14.3007 27.5762 13.6835 28.9941 13.6815C34.39 13.6815 39.7858 13.6815 45.1816 13.6815C46.6308 13.6815 47.7207 14.3163 48.3906 15.5936C48.5859 15.9843 48.8301 16.0311 49.1914 16.0292C50.9492 16.0292 52.707 16.0155 54.4648 16.0292C58.0332 16.0487 60.5195 18.5468 60.5469 22.1307C60.5469 22.4159 60.5469 22.7011 60.5469 23.0253C60.7695 23.039 60.9101 23.0565 61.0527 23.0565C62.4414 23.0565 63.8301 23.0565 65.2656 23.0565C65.7676 19.6405 67.4297 16.9882 70.3437 15.1932C72.3679 13.9114 74.7893 13.4095 77.1562 13.7811C82.4629 14.5917 86.2441 18.8593 86.3184 24.0546C86.3887 28.9843 82.9375 33.8202 77.0039 34.7225V61.7343C78.3066 61.7343 79.6211 61.8007 80.9238 61.7108C81.8848 61.6464 82.4863 61.9628 83.0156 62.7597C83.9258 64.1171 84.9785 65.3768 85.9258 66.7069C86.1616 67.035 86.2973 67.4244 86.3164 67.828C86.3437 71.539 86.3359 75.2499 86.3301 78.9608C86.3301 81.3768 84.8691 82.8417 82.4453 82.8143C81.7988 82.8143 81.4512 82.9159 81.1465 83.5956C80.3398 85.412 78.832 86.3612 76.8496 86.3163C74.8672 86.2714 73.4336 85.2421 72.6523 83.4159C72.457 82.955 72.2519 82.8065 71.7617 82.8104C68.9792 82.8352 66.196 82.8352 63.4121 82.8104C62.9355 82.8104 62.6933 82.9218 62.5039 83.3964C62.1723 84.2712 61.5786 85.0222 60.8038 85.5467C60.0291 86.0711 59.1112 86.3433 58.1758 86.3261C56.1562 86.2655 54.6953 85.2733 53.9062 83.4159C53.6875 82.9003 53.4297 82.7811 52.9414 82.8163C51.8848 82.8886 50.9004 82.6835 50.0703 81.9706C49.2754 81.3026 48.8808 80.4393 48.8027 79.3124ZM20.7402 72.2382H48.8398V58.0975C48.8398 57.8135 48.9525 57.5411 49.1532 57.34C49.3539 57.139 49.6261 57.0258 49.9101 57.0253H53.457V23.0624C51.9141 23.0624 50.4258 23.0487 48.9394 23.08C48.8309 23.1047 48.729 23.1524 48.6404 23.2198C48.5518 23.2871 48.4786 23.3727 48.4258 23.4706C47.5703 25.0155 46.1816 25.5995 44.2988 25.3651C39.6113 24.7792 34.8613 24.6093 30.1914 25.3339C28.1426 25.6522 26.6621 25.0761 25.7539 23.4472C25.7073 23.3586 25.6425 23.281 25.5637 23.2194C25.4849 23.1578 25.394 23.1136 25.2969 23.0897C23.791 23.0624 22.2832 23.0741 20.7402 23.0741V72.2382ZM74.5625 61.6913V34.7538C69.3105 33.7538 66.2168 30.6522 65.2461 25.4667H60.5957V57.0819H71.3066C71.437 57.0817 71.5661 57.1072 71.6866 57.1569C71.8071 57.2067 71.9166 57.2798 72.0088 57.372C72.101 57.4641 72.174 57.5736 72.2238 57.6941C72.2736 57.8146 72.2991 57.9437 72.2988 58.0741V61.6913H74.5625ZM69.875 75.7538V59.4472H65.2031V62.9823C65.2031 63.1184 65.1763 63.2532 65.1241 63.3789C65.072 63.5046 64.9956 63.6188 64.8992 63.715C64.8029 63.8111 64.6886 63.8873 64.5627 63.9392C64.4369 63.9911 64.3021 64.0177 64.166 64.0175H56.7012C56.47 64.0175 56.2482 63.9258 56.0845 63.7624C55.9208 63.5991 55.8286 63.3776 55.8281 63.1464V59.4491H51.2168V75.7616L69.875 75.7538ZM25.3906 18.3749C23.4707 18.3749 21.6641 18.3749 19.8594 18.3749C17.4141 18.3807 16.0156 19.787 16.0156 22.2479C16.0156 39.1867 16.0156 56.1255 16.0156 73.0643C16.0156 75.5507 17.4336 76.9706 19.9219 76.9706H48.7734V74.6268H21.123C19.2305 74.6268 18.3594 73.7499 18.3574 71.8456C18.3587 55.7089 18.3594 39.5728 18.3594 23.4374C18.3594 21.5897 19.2383 20.7167 21.0937 20.7147C22.5019 20.7147 23.9082 20.7147 25.3496 20.7147C25.3652 20.412 25.3828 20.1972 25.3848 19.9823C25.3906 19.4804 25.3906 18.9725 25.3906 18.3749ZM67.5781 24.2343C67.5781 25.8579 68.06 27.4451 68.9627 28.7947C69.8653 30.1443 71.1482 31.1957 72.6488 31.8157C74.1495 32.4357 75.8003 32.5965 77.3924 32.2776C78.9844 31.9587 80.446 31.1745 81.5921 30.0243C82.7381 28.8742 83.5171 27.4098 83.8303 25.8166C84.1435 24.2234 83.9769 22.5731 83.3515 21.0747C82.7261 19.5763 81.6702 18.2972 80.3173 17.3994C78.9645 16.5015 77.3756 16.0253 75.7519 16.0311C73.5815 16.0425 71.5037 16.9121 69.9723 18.4502C68.4409 19.9882 67.5801 22.0697 67.5781 24.2401V24.2343ZM83.9844 75.7518C83.9844 74.5136 83.9844 73.369 83.9844 72.2245C83.9844 70.8124 84.291 69.2948 83.8652 68.0155C83.4394 66.7362 82.2734 65.7167 81.4316 64.5819C81.418 64.5624 81.4062 64.535 81.3867 64.5253C81.0879 64.3729 80.789 64.0956 80.4883 64.0917C77.9492 64.0565 75.4101 64.0702 72.8828 64.0741C72.6875 64.0741 72.5078 64.1015 72.3223 64.1171V75.7518H83.9844ZM37.0508 23.0624C39.7129 23.0624 42.373 23.0624 45.0332 23.0624C46.0332 23.0624 46.4707 22.6288 46.4785 21.6386C46.4915 20.2232 46.4915 18.8078 46.4785 17.3925C46.4668 16.4765 46.0312 16.039 45.125 16.039C39.7786 16.0311 34.4329 16.0311 29.0879 16.039C28.1582 16.039 27.7441 16.455 27.7363 17.3768C27.7246 18.744 27.7363 20.1112 27.7363 21.4784C27.7363 22.7147 28.0996 23.0682 29.3652 23.0682L37.0508 23.0624ZM48.8594 20.7186C50.459 20.7186 51.9687 20.703 53.4785 20.7186C54.8125 20.7362 55.7695 21.6757 55.8516 23.0097C55.8672 23.2518 55.8516 23.496 55.8516 23.7401V56.994H58.1953V22.6972C58.1953 22.4042 58.1953 22.1112 58.1953 21.8202C58.1763 20.8936 57.7922 20.0119 57.1265 19.3671C56.4608 18.7222 55.5674 18.3663 54.6406 18.3768C53.9824 18.3651 53.3242 18.3768 52.666 18.3768H48.8594V20.7186ZM72.2656 80.4823C72.7637 79.6464 73.1914 78.9198 73.6211 78.2011H61.5234C61.8926 78.8515 62.2324 79.4921 62.6152 80.1054C62.6712 80.1979 62.7457 80.2777 62.8341 80.3399C62.9226 80.4021 63.0229 80.4453 63.1289 80.4667C66.1973 80.4882 69.2734 80.4823 72.2656 80.4823ZM55.8594 81.6796C55.8666 82.2964 56.1167 82.8856 56.5554 83.3192C56.9942 83.7529 57.5862 83.996 58.2031 83.996C58.8203 83.9821 59.4084 83.7307 59.845 83.2941C60.2815 82.8576 60.5329 82.2695 60.5469 81.6522C60.5451 81.3403 60.4815 81.0319 60.3596 80.7447C60.2378 80.4576 60.0602 80.1975 59.8371 79.9795C59.614 79.7615 59.3499 79.5899 59.06 79.4747C58.7701 79.3596 58.4603 79.3031 58.1484 79.3085C57.8419 79.312 57.5391 79.3764 57.2576 79.4978C56.9761 79.6192 56.7215 79.7953 56.5086 80.0159C56.2957 80.2364 56.1287 80.4971 56.0172 80.7826C55.9058 81.0682 55.8521 81.3731 55.8594 81.6796ZM76.9629 79.3163C76.6579 79.3114 76.3549 79.3668 76.0713 79.4793C75.7878 79.5918 75.5292 79.7592 75.3106 79.9719C75.0919 80.1846 74.9174 80.4384 74.797 80.7187C74.6767 80.999 74.6129 81.3003 74.6094 81.6054C74.6031 81.9171 74.6591 82.2269 74.7741 82.5167C74.8891 82.8065 75.0608 83.0704 75.279 83.293C75.4973 83.5156 75.7578 83.6925 76.0452 83.8132C76.3327 83.9339 76.6413 83.996 76.9531 83.996C77.5703 83.9821 78.1584 83.7307 78.595 83.2941C79.0315 82.8576 79.2829 82.2695 79.2969 81.6522C79.2908 81.0353 79.0432 80.4452 78.6073 80.0086C78.1714 79.5719 77.5818 79.3234 76.9648 79.3163H76.9629ZM58.2363 61.6815H62.8476V59.4393H58.2383L58.2363 61.6815ZM80.1875 78.1796C80.539 78.7108 80.8418 79.1757 81.1504 79.6366C81.3691 79.9608 81.2617 80.5761 81.9316 80.4862C82.3848 80.4257 82.8965 80.5038 83.2773 80.3124C83.5859 80.1561 83.8223 79.7265 83.9375 79.3573C84.0527 78.9882 83.9629 78.6015 83.9629 78.1854L80.1875 78.1796ZM54.8867 78.1796H51.248C50.9473 80.1776 51.4238 80.6249 53.5351 80.4511C53.998 79.6757 54.4375 78.9393 54.8828 78.1796H54.8867Z" fill="#FF7D04"/>
<path d="M23.082 68.9258V59.2285C23.082 58.9695 23.1849 58.7211 23.3681 58.538C23.5512 58.3548 23.7996 58.252 24.0586 58.252H36.0898C36.3488 58.252 36.5972 58.3548 36.7804 58.538C36.9635 58.7211 37.0664 58.9695 37.0664 59.2285V68.9258C37.0664 69.1848 36.9635 69.4332 36.7804 69.6163C36.5972 69.7995 36.3488 69.9023 36.0898 69.9023H24.0586C23.7996 69.9023 23.5512 69.7995 23.3681 69.6163C23.1849 69.4332 23.082 69.1848 23.082 68.9258ZM34.7109 66.582V61.5723C34.7109 61.3133 34.6081 61.0649 34.4249 60.8817C34.2418 60.6986 33.9934 60.5957 33.7344 60.5957H26.4121C26.1531 60.5957 25.9047 60.6986 25.7216 60.8817C25.5384 61.0649 25.4355 61.3133 25.4355 61.5723V66.582C25.4355 66.841 25.5384 67.0894 25.7216 67.2726C25.9047 67.4557 26.1531 67.5586 26.4121 67.5586H33.7402C33.9982 67.557 34.2451 67.4535 34.427 67.2705C34.6089 67.0875 34.7109 66.84 34.7109 66.582Z" fill="#FF7D04"/>
<path d="M50.3535 27.8047H36.7266C36.3005 27.8047 35.9551 28.1501 35.9551 28.5762V29.2637C35.9551 29.6898 36.3005 30.0352 36.7266 30.0352H50.3535C50.7796 30.0352 51.125 29.6898 51.125 29.2637V28.5762C51.125 28.1501 50.7796 27.8047 50.3535 27.8047Z" fill="#FF7D04"/>
<path d="M50.3418 37.1641H36.748C36.3198 37.1641 35.9727 37.5112 35.9727 37.9395V38.6523C35.9727 39.0806 36.3198 39.4277 36.748 39.4277H50.3418C50.77 39.4277 51.1172 39.0806 51.1172 38.6523V37.9395C51.1172 37.5112 50.77 37.1641 50.3418 37.1641Z" fill="#FF7D04"/>
<path d="M50.3535 41.8594H36.7773C36.347 41.8594 35.998 42.2083 35.998 42.6387V43.3535C35.998 43.7839 36.347 44.1328 36.7773 44.1328H50.3535C50.7839 44.1328 51.1328 43.7839 51.1328 43.3535V42.6387C51.1328 42.2083 50.7839 41.8594 50.3535 41.8594Z" fill="#FF7D04"/>
<path d="M50.3535 51.2363H36.7773C36.348 51.2363 36 51.5844 36 52.0137V52.7012C36 53.1305 36.348 53.4785 36.7773 53.4785H50.3535C50.7828 53.4785 51.1309 53.1305 51.1309 52.7012V52.0137C51.1309 51.5844 50.7828 51.2363 50.3535 51.2363Z" fill="#FF7D04"/>
<path d="M32.0996 27.5136L32.7168 27.9745C32.7998 28.036 32.8699 28.1133 32.9229 28.202C32.9758 28.2907 33.0107 28.389 33.0254 28.4913C33.0401 28.5936 33.0344 28.6977 33.0086 28.7978C32.9828 28.8978 32.9374 28.9918 32.875 29.0741L26.1269 38.0741C26.0596 38.1627 25.9742 38.2358 25.8764 38.2886C25.7785 38.3415 25.6705 38.3729 25.5596 38.3806C25.4486 38.3884 25.3373 38.3724 25.2331 38.3337C25.1288 38.295 25.034 38.2344 24.9551 38.1562L22.9004 36.1073C22.7555 35.961 22.6742 35.7634 22.6742 35.5575C22.6742 35.3516 22.7555 35.154 22.9004 35.0077L23.373 34.5194C23.4492 34.4388 23.5417 34.3753 23.6443 34.3332C23.747 34.2911 23.8574 34.2713 23.9682 34.2752C24.0791 34.2791 24.1879 34.3065 24.2873 34.3557C24.3867 34.4049 24.4745 34.4747 24.5449 34.5605L24.6035 34.6308C24.6792 34.7214 24.7746 34.7937 24.8823 34.8421C24.99 34.8906 25.1072 34.914 25.2253 34.9107C25.3434 34.9073 25.4591 34.8772 25.5639 34.8226C25.6686 34.768 25.7596 34.6904 25.8301 34.5956L31.0273 27.6698C31.1512 27.5102 31.332 27.4047 31.532 27.3756C31.7319 27.3465 31.9353 27.3959 32.0996 27.5136Z" fill="#FF7D04"/>
<path d="M32.0723 41.5546L32.75 42.0624C32.9081 42.1819 33.0124 42.3593 33.0398 42.5555C33.0673 42.7518 33.0157 42.951 32.8965 43.1093L26.0723 52.2089C26.008 52.2949 25.9259 52.366 25.8317 52.4175C25.7374 52.4689 25.6332 52.4995 25.5261 52.5071C25.419 52.5147 25.3115 52.4991 25.211 52.4615C25.1104 52.4239 25.0192 52.365 24.9434 52.289L22.8809 50.2187C22.8091 50.1469 22.7527 50.0614 22.7151 49.9672C22.6775 49.873 22.6594 49.7722 22.662 49.6708C22.6645 49.5694 22.6877 49.4696 22.73 49.3774C22.7723 49.2853 22.833 49.2027 22.9082 49.1347L23.4512 48.6444C23.5272 48.5753 23.6168 48.5225 23.7141 48.4895C23.8115 48.4565 23.9146 48.4439 24.0171 48.4525C24.1195 48.4611 24.2191 48.4908 24.3096 48.5396C24.4001 48.5884 24.4795 48.6553 24.543 48.7362L24.5547 48.7519C24.6258 48.842 24.7167 48.9146 24.8203 48.9642C24.9239 49.0138 25.0375 49.039 25.1523 49.0378C25.2671 49.0367 25.3802 49.0093 25.4828 48.9577C25.5854 48.9061 25.6748 48.8317 25.7441 48.7401L31.0176 41.7089C31.0762 41.6289 31.1502 41.5613 31.2352 41.5102C31.3202 41.4591 31.4145 41.4253 31.5126 41.411C31.6108 41.3966 31.7108 41.4019 31.8069 41.4266C31.9029 41.4512 31.9932 41.4947 32.0723 41.5546Z" fill="#FF7D04"/>
<path d="M45.666 32.4863H36.7773C36.348 32.4863 36 32.8344 36 33.2637V33.9512C36 34.3805 36.348 34.7285 36.7773 34.7285H45.666C46.0953 34.7285 46.4434 34.3805 46.4434 33.9512V33.2637C46.4434 32.8344 46.0953 32.4863 45.666 32.4863Z" fill="#FF7D04"/>
<path d="M45.6543 46.5391H36.748C36.3198 46.5391 35.9727 46.8862 35.9727 47.3145V48.0293C35.9727 48.4575 36.3198 48.8047 36.748 48.8047H45.6543C46.0825 48.8047 46.4297 48.4575 46.4297 48.0293V47.3145C46.4297 46.8862 46.0825 46.5391 45.6543 46.5391Z" fill="#FF7D04"/>
<path d="M45.6797 58.2754H40.2773C39.8459 58.2754 39.4961 58.6252 39.4961 59.0566V59.7207C39.4961 60.1522 39.8459 60.502 40.2773 60.502H45.6797C46.1112 60.502 46.4609 60.1522 46.4609 59.7207V59.0566C46.4609 58.6252 46.1112 58.2754 45.6797 58.2754Z" fill="#FF7D04"/>
<path d="M45.666 62.957H40.293C39.8637 62.957 39.5156 63.3051 39.5156 63.7344V64.4219C39.5156 64.8512 39.8637 65.1992 40.293 65.1992H45.666C46.0953 65.1992 46.4434 64.8512 46.4434 64.4219V63.7344C46.4434 63.3051 46.0953 62.957 45.666 62.957Z" fill="#FF7D04"/>
<path d="M45.6289 67.6328H40.2891C39.8468 67.6328 39.4883 67.9913 39.4883 68.4336V69.0957C39.4883 69.538 39.8468 69.8965 40.2891 69.8965H45.6289C46.0712 69.8965 46.4297 69.538 46.4297 69.0957V68.4336C46.4297 67.9913 46.0712 67.6328 45.6289 67.6328Z" fill="#FF7D04"/>
<path d="M50.377 32.4922H49.5938C49.1806 32.4922 48.8457 32.8271 48.8457 33.2402V33.9746C48.8457 34.3877 49.1806 34.7227 49.5938 34.7227H50.377C50.7901 34.7227 51.125 34.3877 51.125 33.9746V33.2402C51.125 32.8271 50.7901 32.4922 50.377 32.4922Z" fill="#FF7D04"/>
<path d="M50.377 46.543H49.6406C49.2221 46.543 48.8828 46.8823 48.8828 47.3008V48.041C48.8828 48.4595 49.2221 48.7988 49.6406 48.7988H50.377C50.7955 48.7988 51.1348 48.4595 51.1348 48.041V47.3008C51.1348 46.8823 50.7955 46.543 50.377 46.543Z" fill="#FF7D04"/>
<path d="M80.1152 20.4237L80.6172 20.914C80.6909 20.9839 80.7498 21.0678 80.7906 21.1608C80.8313 21.2538 80.8531 21.354 80.8545 21.4556C80.856 21.5571 80.8371 21.6579 80.799 21.7521C80.761 21.8462 80.7045 21.9318 80.6328 22.0038L73.9316 28.7108C73.8614 28.7812 73.778 28.8371 73.6862 28.8752C73.5944 28.9133 73.4959 28.9329 73.3965 28.9329C73.2971 28.9329 73.1986 28.9133 73.1068 28.8752C73.015 28.8371 72.9315 28.7812 72.8613 28.7108L70.9082 26.7577C70.8378 26.6873 70.7819 26.6037 70.7437 26.5118C70.7056 26.4198 70.686 26.3212 70.686 26.2216C70.686 26.122 70.7056 26.0234 70.7437 25.9314C70.7819 25.8394 70.8378 25.7558 70.9082 25.6854L71.4629 25.1288C71.5372 25.054 71.6264 24.9956 71.7246 24.9573C71.8228 24.9189 71.9279 24.9015 72.0333 24.9061C72.1386 24.9107 72.2418 24.9372 72.3363 24.984C72.4308 25.0307 72.5145 25.0967 72.582 25.1776L72.8399 25.4843C72.9074 25.5652 72.9911 25.6312 73.0856 25.6779C73.1801 25.7247 73.2833 25.7512 73.3886 25.7558C73.494 25.7604 73.5991 25.743 73.6973 25.7046C73.7955 25.6663 73.8846 25.6078 73.959 25.5331L79.0371 20.4335C79.107 20.3615 79.1904 20.3041 79.2826 20.2646C79.3748 20.2251 79.4739 20.2043 79.5741 20.2034C79.6744 20.2025 79.7739 20.2215 79.8668 20.2593C79.9597 20.2971 80.0441 20.353 80.1152 20.4237Z" fill="#FF7D04"/>
</svg>
