<svg width="100" height="100" viewBox="0 0 100 100" fill="none" xmlns="http://www.w3.org/2000/svg">
<path d="M30.6641 12.5H83.6914C85.4492 13.1152 86.0996 14.3594 86.0957 16.2109C86.0645 38.737 86.0579 61.2689 86.0762 83.8066C86.0762 84.0273 86.0762 84.2461 86.0762 84.4668C86.0215 86.2441 84.7754 87.4824 82.9922 87.498C81.209 87.5137 79.3809 87.498 77.5742 87.498C75.6445 87.498 73.7168 87.5078 71.7891 87.498C71.0957 87.498 70.6543 87.0391 70.6484 86.4199C70.6426 85.8008 71.0781 85.3594 71.7617 85.3125C71.957 85.2988 72.1524 85.3125 72.3477 85.3125H82.5274C83.7149 85.3125 83.8809 85.1484 83.8809 83.9629C83.8809 73.2949 83.8809 62.627 83.8809 51.959V51.1777H81.3887V52.1543C81.3887 61.8717 81.3887 71.5879 81.3887 81.3027C81.3887 82.4922 81.0566 82.8203 79.8711 82.8223H63.4648C62.2383 82.8223 61.9023 82.4844 61.9023 81.2598C61.9023 78.6973 61.9023 76.1348 61.9023 73.5703C61.8906 70.0547 59.584 67.748 56.0742 67.7422C52.6328 67.7422 49.1914 67.7422 45.748 67.7422H44.9863V70.2324H55.9395C58.2441 70.2324 59.4102 71.3926 59.4121 73.6875C59.4121 77.1549 59.4121 80.6217 59.4121 84.0879C59.4121 85.0645 59.6621 85.3105 60.6113 85.3125C62.1973 85.3125 63.7839 85.3125 65.3711 85.3125C66.4941 85.3125 67.6172 85.2988 68.7402 85.3125C69.4219 85.3262 69.8887 85.7871 69.9004 86.3867C69.9121 86.9863 69.4434 87.4512 68.7734 87.5C68.6035 87.5117 68.4316 87.5 68.2617 87.5H60.6445C58.418 87.5 57.2148 86.2949 57.2129 84.0566C57.2129 80.6634 57.2129 77.2702 57.2129 73.877C57.2129 72.541 57.0879 72.418 55.7461 72.418C42.9792 72.418 30.2116 72.418 17.4434 72.418C17.0511 72.4355 16.6582 72.4099 16.2715 72.3418C14.7422 71.9981 13.9277 70.8262 13.9277 69.0215C13.9277 51.4212 13.9206 33.821 13.9062 16.2207C13.9062 14.3691 14.5508 13.127 16.3105 12.5098H27.0039C27.4824 12.8828 27.9062 13.291 27.6445 13.9746C27.3828 14.6582 26.8262 14.7129 26.2031 14.7109C23.25 14.7012 20.2949 14.7109 17.3418 14.7109C16.3477 14.7109 16.125 14.9238 16.125 15.9043C16.125 33.6296 16.125 51.3542 16.125 69.0781C16.125 70.0195 16.3457 70.2324 17.2969 70.2324H27.4063V67.7285H20.1934C18.9121 67.7285 18.6133 67.4297 18.6133 66.1289C18.6133 50.3581 18.6133 34.5866 18.6133 18.8145C18.6133 17.4707 18.8984 17.1875 20.2422 17.1875H79.7871C81.084 17.1875 81.3867 17.4863 81.3887 18.7715C81.3887 23.4108 81.3887 28.0495 81.3887 32.6875V33.5586H83.8789V16.1426C83.8789 14.8184 83.752 14.6953 82.4023 14.6953C65.4102 14.6953 48.418 14.6953 31.4258 14.6953C30.7969 14.6953 30.2305 14.6113 29.9902 13.9453C29.75 13.2793 30.1484 12.8477 30.6641 12.5ZM79.1582 76.3672C77.7188 76.3672 76.3555 76.3672 74.9922 76.3672C72.8262 76.3672 71.5391 75.0664 71.5371 72.8965C71.5371 69.209 71.6387 65.5195 71.5039 61.8379C71.3945 58.8496 72.7949 57.3203 75.7852 57.541C76.8945 57.625 78.0137 57.5547 79.1562 57.5547V19.4238H76.4219C76.4219 19.8691 76.4395 20.3027 76.4219 20.7344C76.3164 22.9063 74.8379 24.5527 72.668 24.6934C70.9115 24.8041 69.1496 24.7943 67.3945 24.6641C65.5664 24.5312 64.1602 23.0742 63.8945 21.2559C63.8086 20.6699 63.8066 20.0527 63.7637 19.4238H60.998V20.2539C60.998 22.0117 61.0195 23.7695 60.9883 25.5273C60.9552 26.5872 60.5394 27.5991 59.8178 28.376C59.0961 29.1529 58.1175 29.6421 57.063 29.7531C56.0085 29.8642 54.9495 29.5895 54.0819 28.9799C53.2143 28.3704 52.5968 27.4672 52.3438 26.4375C52.2404 25.9121 52.1945 25.3771 52.207 24.8418C52.1914 23.043 52.207 21.2441 52.207 19.4355H48.9336V37.5273C49.0547 37.5605 49.1289 37.5801 49.1934 37.5957C49.9746 37.7754 50.3516 38.1816 50.2871 38.8105C50.2227 39.4395 49.7656 39.7754 48.9707 39.7871C48.2383 39.7988 47.5059 39.7871 46.7734 39.7871C45.8984 39.7871 45.4355 39.4727 45.3379 38.8516C45.2402 38.2305 45.6289 37.7969 46.5254 37.5566C46.5664 37.5469 46.5977 37.5 46.625 37.4785V19.4199H40.8008V20.3125C40.8008 26 40.8008 31.6882 40.8008 37.377C40.8008 39.0977 40.123 39.7871 38.4219 39.791C34.7839 39.791 31.1458 39.791 27.5078 39.791C25.75 39.791 25.0762 39.1172 25.0762 37.3574C25.0762 31.6699 25.0762 25.9818 25.0762 20.293V19.4355H20.8496V45.9492H40.8574C40.8809 45.8633 40.9043 45.7949 40.916 45.7246C41.0547 44.9434 41.4609 44.5527 42.0879 44.584C42.7148 44.6152 43.1113 45.1094 43.1191 45.9277C43.1191 46.6602 43.1191 47.3926 43.1191 48.125C43.1191 49.0059 42.748 49.5039 42.084 49.5449C41.4609 49.584 41.0762 49.1895 40.8926 48.3281C40.8926 48.291 40.8301 48.2637 40.8223 48.2578H20.8633V50.9043H21.7109C27.4245 50.9043 33.1367 50.9043 38.8477 50.9043C40.4766 50.9043 41.2109 51.6504 41.2129 53.2832C41.2129 55.4316 41.2129 57.5801 41.2129 59.7285C41.2129 61.6016 40.5312 62.2832 38.6562 62.2832H20.8574V65.4863H51.1172C51.1172 65.1562 51.1172 64.8691 51.1172 64.5801C51.1172 59.429 51.1172 54.278 51.1172 49.127C51.1172 47.916 51.4238 47.6172 52.6367 47.6172C57.0312 47.6172 61.4258 47.6172 65.8203 47.6172H66.6973C66.7305 47.4219 66.7559 47.3086 66.7715 47.1914C66.8789 46.3555 67.2773 45.9434 67.9434 45.9824C68.6094 46.0215 68.9551 46.4785 68.9707 47.3281C68.9844 48.0586 68.9707 48.791 68.9707 49.5234C68.9707 50.6953 68.6758 51.2012 67.9649 51.2715C67.3242 51.334 66.9746 50.9551 66.6758 49.8633H53.3613V65.5312C54.3047 65.5312 55.2031 65.5312 56.0957 65.5312C60.7695 65.5508 64.0625 68.832 64.0879 73.5078C64.0977 75.6055 64.0879 77.7051 64.0879 79.8047V80.5723H79.1523L79.1582 76.3672ZM27.3438 24.2871V37.5352H38.5703V24.2871H27.3438ZM38.9727 60.0664V53.1582H25.7422V60.0664H38.9727ZM79.1484 74.1602V59.7793C77.5859 59.7793 76.0488 59.75 74.5215 59.7949C73.9805 59.8105 73.7402 60.248 73.7402 60.7715C73.7402 64.8952 73.7402 69.0195 73.7402 73.1445C73.7402 73.7852 74.1309 74.1445 74.7559 74.1543C76.1894 74.1738 77.6269 74.1602 79.1484 74.1602ZM54.3906 19.7012C54.3906 21.6543 54.375 23.5254 54.3906 25.3984C54.3787 25.6951 54.4268 25.991 54.5322 26.2686C54.6376 26.5461 54.798 26.7994 55.0038 27.0133C55.2097 27.2273 55.4566 27.3973 55.7299 27.5133C56.0032 27.6293 56.2971 27.6889 56.5939 27.6883C56.8908 27.6878 57.1845 27.6272 57.4573 27.5103C57.7302 27.3933 57.9765 27.2223 58.1816 27.0077C58.3867 26.793 58.5462 26.5391 58.6506 26.2612C58.755 25.9833 58.8021 25.6872 58.7891 25.3906C58.8105 23.9277 58.7891 22.4609 58.7891 21.0039V19.7012H54.3906ZM83.834 48.875V35.8809H81.4453V48.875H83.834ZM42.6953 67.791H29.7051V70.1699H42.6953V67.791ZM27.3203 21.998H38.5547V19.4395H27.2754C27.2754 20.2207 27.2754 20.9551 27.2754 21.6836C27.284 21.7892 27.299 21.8942 27.3203 21.998ZM66.0371 19.4141C66.0254 19.6777 66.0098 19.8691 66.0078 20.0625C65.9961 21.8457 66.6914 22.5508 68.4727 22.5566C69.6914 22.5566 70.9121 22.5723 72.1309 22.5566C73.1816 22.5371 73.9531 22.0273 74.1309 21.1719C74.248 20.6172 74.2109 20.0313 74.2441 19.4141H66.0371ZM20.8535 60.0391H23.4375V53.1445H20.8535V60.0391Z" fill="#FF7D04"/>
<path d="M70.4082 39.5078C69.6368 39.4837 68.8898 39.2315 68.2616 38.7832C67.6334 38.3349 67.152 37.7105 66.8783 36.9889C66.6046 36.2673 66.5508 35.4808 66.7236 34.7286C66.8965 33.9765 67.2883 33.2923 67.8496 32.7626C68.4109 32.2329 69.1165 31.8813 69.8774 31.7523C70.6383 31.6232 71.4204 31.7224 72.125 32.0374C72.8295 32.3524 73.425 32.8691 73.8362 33.5222C74.2474 34.1753 74.456 34.9356 74.4355 35.7071C74.4033 36.7444 73.9615 37.7268 73.2067 38.4391C72.4519 39.1514 71.4456 39.5357 70.4082 39.5078ZM70.5351 37.3047C70.7613 37.3024 70.9847 37.2555 71.1926 37.1666C71.4005 37.0777 71.5889 36.9486 71.7468 36.7867C71.9046 36.6248 72.029 36.4334 72.1127 36.2233C72.1964 36.0132 72.2377 35.7886 72.2343 35.5625C72.2146 35.1154 72.0216 34.6934 71.6962 34.3861C71.3707 34.0787 70.9385 33.9101 70.4909 33.916C70.0433 33.9218 69.6156 34.1016 69.2983 34.4173C68.981 34.7331 68.799 35.1599 68.791 35.6075C68.7928 35.8338 68.8394 36.0576 68.9283 36.2657C69.0171 36.4739 69.1464 36.6624 69.3086 36.8203C69.4709 36.9782 69.6628 37.1023 69.8733 37.1854C70.0839 37.2686 70.3088 37.3091 70.5351 37.3047Z" fill="#FF7D04"/>
</svg>
