<svg width="20" height="20" viewBox="0 0 20 20" fill="none" xmlns="http://www.w3.org/2000/svg">
<g clip-path="url(#clip0_189_6291)">
<path d="M10 19.8347C15.5228 19.8347 20 15.3946 20 9.91736C20 4.44015 15.5228 0 10 0C4.47715 0 0 4.44015 0 9.91736C0 15.3946 4.47715 19.8347 10 19.8347Z" fill="#6C27B3"/>
<path d="M12.3136 4.24072H7.68641C5.80594 4.24072 4.27609 5.75792 4.27609 7.62285V12.2118C4.27609 14.0766 5.80594 15.5939 7.68644 15.5939H12.3136C14.194 15.5939 15.7239 14.0767 15.7239 12.2118V7.62285C15.7239 5.75792 14.194 4.24072 12.3136 4.24072ZM14.5723 12.2118C14.5723 13.4489 13.561 14.4518 12.3136 14.4518H7.68644C6.43902 14.4518 5.42777 13.4489 5.42777 12.2118V7.62289C5.42777 6.38578 6.43902 5.38285 7.68644 5.38285H12.3136C13.561 5.38285 14.5723 6.38582 14.5723 7.62289V12.2118Z" fill="white"/>
<path d="M10 6.98096C8.36742 6.98096 7.03914 8.29826 7.03914 9.91735C7.03914 11.5363 8.36742 12.8536 10 12.8536C11.6326 12.8536 12.9607 11.5364 12.9607 9.91735C12.9607 8.29826 11.6326 6.98096 10 6.98096ZM10 11.7115C9.00082 11.7115 8.19078 10.9083 8.19078 9.91735C8.19078 8.92639 9.00082 8.12308 10 8.12308C10.9992 8.12308 11.8091 8.92635 11.8091 9.91735C11.8091 10.9083 10.9992 11.7115 10 11.7115Z" fill="white"/>
<path d="M13.6759 7.00319C13.6759 7.39175 13.3582 7.70682 12.9664 7.70682C12.5746 7.70682 12.2569 7.39175 12.2569 7.00319C12.2569 6.61459 12.5746 6.29956 12.9664 6.29956C13.3583 6.29956 13.6759 6.61451 13.6759 7.00319Z" fill="white"/>
</g>
<defs>
<clipPath id="clip0_189_6291">
<rect width="20" height="19.8347" fill="white"/>
</clipPath>
</defs>
</svg>
