<svg width="20" height="21" viewBox="0 0 20 21" fill="none" xmlns="http://www.w3.org/2000/svg">
<g clip-path="url(#clip0_189_6277)">
<path d="M16.0743 20.7346C15.2422 20.7346 14.2372 20.5278 13.1319 20.1141C10.7089 19.2082 8.07255 17.4176 5.70869 15.0732C3.34416 12.7283 1.53863 10.1131 0.624435 7.71003C-0.206348 5.52515 -0.208366 3.73188 0.619726 2.9113C0.738794 2.79322 0.859879 2.66646 0.985001 2.5357C1.74044 1.74781 2.5941 0.861181 3.72558 0.90121C4.50523 0.933232 5.26067 1.41357 6.03428 2.36825C8.32011 5.18758 7.28953 6.19229 6.09684 7.35711L5.88628 7.56393C5.6912 7.7574 5.32256 8.65337 8.75198 12.0544C9.87135 13.1646 10.8259 13.9771 11.5887 14.4688C12.0691 14.7784 12.9281 15.2467 13.2806 14.8971L13.4925 14.685C14.6657 13.5048 15.6788 12.4861 18.5196 14.751C19.4822 15.5182 19.9659 16.2668 19.9982 17.0413C20.0446 18.1628 19.1438 19.0114 18.3487 19.7599C18.2175 19.884 18.0897 20.0041 17.9706 20.1215C17.5596 20.5298 16.9024 20.7346 16.0743 20.7346ZM3.64485 1.56701C2.84098 1.56701 2.11513 2.32488 1.47271 2.99536C1.34355 3.13012 1.21843 3.26088 1.09532 3.38297C0.478459 3.99407 0.54102 5.59987 1.25408 7.4752C2.13532 9.7915 3.88635 12.3226 6.18496 14.6022C8.4829 16.8805 11.0338 18.6171 13.3701 19.4904C15.261 20.1989 16.8802 20.2589 17.4957 19.6485C17.6188 19.5264 17.7507 19.4023 17.8866 19.2749C18.5774 18.6238 19.3611 17.8859 19.3268 17.0673C19.3033 16.5049 18.8902 15.8998 18.0991 15.2694C15.7319 13.3814 15.07 14.0479 13.9721 15.152L13.7569 15.3675C13.2322 15.8885 12.3798 15.7731 11.2228 15.0272C10.4203 14.5095 9.42871 13.6676 8.27705 12.5248C5.43087 9.70278 4.5207 7.97555 5.41136 7.09026L5.62595 6.88011C6.74196 5.79134 7.41533 5.13421 5.51092 2.78521C4.87387 2.00132 4.26441 1.5917 3.69732 1.56768C3.67983 1.56701 3.66234 1.56701 3.64485 1.56701Z" fill="#FF7D04"/>
</g>
<defs>
<clipPath id="clip0_189_6277">
<rect width="20" height="19.8347" fill="white" transform="translate(0 0.899902)"/>
</clipPath>
</defs>
</svg>
