<svg width="20" height="21" viewBox="0 0 20 21" fill="none" xmlns="http://www.w3.org/2000/svg">
<g clip-path="url(#clip0_189_6262)">
<path d="M10.0019 0.610352C5.81796 0.614605 2.42793 3.97836 2.42578 8.12769C2.42578 12.1648 9.41309 19.9876 9.70943 20.3163C9.85306 20.4754 10.0996 20.4889 10.26 20.3465C10.2707 20.337 10.2808 20.3269 10.2904 20.3163C10.5868 19.9837 17.5741 12.1648 17.5741 8.12769C17.5719 3.97986 14.1842 0.616732 10.0019 0.610352ZM10.0019 19.4694C8.66835 17.9227 3.20561 11.4301 3.20561 8.12382C3.20561 4.40136 6.24838 1.38374 10.0019 1.38374C13.7553 1.38374 16.7981 4.40136 16.7981 8.12382C16.7981 11.4301 11.3354 17.9304 10.0019 19.4694Z" fill="#FF7D04"/>
<path d="M10.1381 4.57739C7.8705 4.57952 6.03399 6.40433 6.03613 8.65315C6.03828 10.902 7.8783 12.7233 10.1459 12.7212C12.4119 12.719 14.2478 10.8966 14.2478 8.64928C14.2435 6.40071 12.4054 4.57952 10.1381 4.57739ZM10.1381 11.9517C8.30116 11.9517 6.81207 10.4749 6.81207 8.65315C6.81207 6.83143 8.30116 5.35465 10.1381 5.35465C11.975 5.35465 13.464 6.83143 13.464 8.65315C13.4619 10.474 11.974 11.9495 10.1381 11.9517Z" fill="#FF7D04"/>
</g>
<defs>
<clipPath id="clip0_189_6262">
<rect width="20" height="19.8347" fill="white" transform="translate(0 0.610352)"/>
</clipPath>
</defs>
</svg>
