<svg width="20" height="21" viewBox="0 0 20 21" fill="none" xmlns="http://www.w3.org/2000/svg">
<path d="M17.5584 4.2229H2.44568C1.09663 4.2229 0 5.31854 0 6.66638V16.986C0 18.3339 1.09663 19.4295 2.44568 19.4295H17.5543C18.9034 19.4295 20 18.3339 20 16.986V6.67051C20.0041 5.32267 18.9075 4.2229 17.5584 4.2229ZM18.8868 16.986C18.8868 17.7178 18.2909 18.3132 17.5584 18.3132H2.44568C1.71322 18.3132 1.11732 17.7178 1.11732 16.986V6.67051C1.11732 5.93871 1.71322 5.34334 2.44568 5.34334H17.5543C18.2868 5.34334 18.8827 5.93871 18.8827 6.67051V16.986H18.8868Z" fill="#FF7D04"/>
<path d="M12.6113 11.6557L17.5027 7.27293C17.7303 7.06619 17.751 6.71474 17.5441 6.4832C17.3372 6.25579 16.9854 6.23511 16.7537 6.44185L10.0084 12.491L8.69246 11.3167C8.68832 11.3126 8.68418 11.3084 8.68418 11.3043C8.65522 11.2753 8.62625 11.2505 8.59314 11.2257L3.2383 6.43772C3.00656 6.23098 2.65482 6.25165 2.44791 6.4832C2.241 6.71474 2.26169 7.06619 2.49343 7.27293L7.44272 11.6929L2.51412 16.3032C2.29065 16.514 2.27824 16.8655 2.48929 17.0929C2.60102 17.2087 2.75 17.2707 2.89897 17.2707C3.03553 17.2707 3.17209 17.2211 3.27969 17.1218L8.28278 12.4455L9.64011 13.6569C9.7477 13.752 9.88013 13.7975 10.0125 13.7975C10.145 13.7975 10.2815 13.7479 10.385 13.6528L11.7796 12.4041L16.7537 17.126C16.8613 17.2293 17.002 17.279 17.1385 17.279C17.2875 17.279 17.4324 17.2211 17.5441 17.1053C17.7551 16.882 17.7469 16.5264 17.5234 16.3156L12.6113 11.6557Z" fill="#FF7D04"/>
</svg>
