<svg width="100" height="100" viewBox="0 0 100 100" fill="none" xmlns="http://www.w3.org/2000/svg">
<path d="M12.5977 57.5684C13.1563 56.2578 14.1602 55.8106 15.5605 55.8106C22.9082 55.8496 30.2559 55.8223 37.6035 55.8398C38.1289 55.8398 38.4082 55.7207 38.6562 55.2168C39.3672 53.7695 40.6094 53.1231 42.1992 53.0293C44.4355 52.8965 46.668 52.7227 48.9473 52.5645V50.1797H29.5332C29.2891 50.1797 29.0449 50.1797 28.8008 50.1797C27.3926 50.0938 26.5059 49.1797 26.5059 47.7617C26.5059 38.4609 26.5059 29.1602 26.5059 19.8594C26.5059 18.3789 27.4473 17.4375 28.9355 17.4355C43.0462 17.4355 57.1563 17.4355 71.2656 17.4355C72.7481 17.4355 73.6895 18.3848 73.6895 19.8672C73.6895 29.1445 73.6895 38.4212 73.6895 47.6973C73.6895 49.2598 72.7656 50.1719 71.1641 50.1816C68.5273 50.1973 65.8906 50.1816 63.2539 50.1816H51.2617V52.5391C51.9375 52.5996 52.6289 52.6699 53.3281 52.7207C54.959 52.8359 56.5918 52.9316 58.2207 53.0547C59.7539 53.1699 60.9199 53.8965 61.5762 55.293C61.7988 55.7695 62.0723 55.8418 62.5254 55.8418C69.9225 55.8314 77.319 55.8314 84.7148 55.8418C86.7734 55.8418 87.5957 56.6641 87.5957 58.7227V80.0215C87.5957 81.8945 86.7383 82.7676 84.8867 82.7676C61.6953 82.7676 38.5039 82.7728 15.3125 82.7832C13.957 82.7832 13.0957 82.2188 12.5957 81.0059L12.5977 57.5684ZM28.7246 47.9238H71.4492V45.3457H38.832C38.5155 45.3556 38.1987 45.3399 37.8848 45.2988C37.6324 45.2552 37.4041 45.1226 37.241 44.9252C37.0779 44.7278 36.9908 44.4785 36.9955 44.2225C37.0003 43.9665 37.0964 43.7206 37.2667 43.5293C37.437 43.338 37.6701 43.214 37.9238 43.1797C38.2153 43.152 38.5082 43.1429 38.8008 43.1523H71.4414V19.6816H28.7402V43.1484H29.5684C30.668 43.1484 31.7656 43.1367 32.8652 43.1484C33.6074 43.1602 34.0879 43.6016 34.0938 44.2227C34.0996 44.8438 33.625 45.2871 32.8848 45.3301C32.4453 45.3535 32.0059 45.3301 31.5664 45.3301C30.627 45.3301 29.6875 45.3301 28.7246 45.3301V47.9238ZM67.1699 72.5957V58.0684H51.2441V72.5957H67.1699ZM48.9727 65.332H33.0332V69.8613C35.0977 69.8613 37.1152 69.8613 39.1348 69.8613C40.4121 69.8613 41.0117 70.4648 41.0137 71.7441C41.0137 74.1113 41.0137 76.4766 41.0137 78.8418V80.5195H48.9707L48.9727 65.332ZM69.4648 66.0742V80.5176H73.3906C72.6094 79.0332 72.3574 77.4883 73.209 76.125C74.0879 74.7188 74.7012 73.3731 74.6406 71.6621C74.6016 70.5762 75.6582 69.8809 76.8399 69.8613C79.0332 69.8262 79.8926 70.252 80.1602 71.582C80.2381 72.0386 80.2623 72.5027 80.2324 72.9648C80.2086 73.3553 80.2632 73.7465 80.393 74.1155C80.5229 74.4845 80.7253 74.8238 80.9883 75.1133C81.3815 75.55 81.6778 76.0651 81.8576 76.6246C82.0374 77.1841 82.0965 77.7753 82.0312 78.3594C81.9512 79.0938 81.709 79.8086 81.543 80.5215H85.3516V66.0684L69.4648 66.0742ZM14.8438 58.0684V71.1543H19.4043C19.4185 71.1226 19.4283 71.0891 19.4336 71.0547C19.2969 69.9922 19.1595 68.929 19.0215 67.8652C18.8066 66.2246 18.998 65.9121 20.6055 65.4141C20.4039 65.108 20.1848 64.8139 19.9492 64.5332C19.0527 63.5684 18.6895 62.3574 18.3594 61.1328C18.1641 60.4375 18.4844 59.8672 19.1113 59.6875C19.6973 59.5234 20.2305 59.8379 20.4629 60.5C20.6094 60.9141 20.6582 61.375 20.8535 61.752C21.2988 62.5664 21.8301 63.3418 22.416 64.291C22.5684 63.8008 22.6543 63.5547 22.7207 63.3047C22.8672 62.7578 23.2031 62.3594 23.7598 62.3047C24.6016 62.2207 25 61.7617 25.127 60.9785C25.1465 60.8822 25.1786 60.789 25.2227 60.7012C25.4824 60.1328 26.0527 59.8574 26.6074 60.0781C27.1621 60.2988 27.4336 60.7578 27.2812 61.3672C27.1504 61.8848 26.9375 62.3828 26.8145 62.9043C26.6484 63.6133 26.2051 64.0313 25.5156 64.1055C24.6543 64.1992 24.4883 64.7402 24.4551 65.4863C24.6504 65.5 24.8242 65.5195 24.9902 65.5234C26.5527 65.5645 27.041 66.125 26.834 67.6719C26.6816 68.8223 26.5332 69.9746 26.3789 71.1484H30.7207V58.0625L14.8438 58.0684ZM14.8281 73.4258V80.5156H30.7441V73.4258H14.8281ZM85.3516 63.8086V58.0684H69.4531V63.8086H85.3516ZM51.2402 80.5332H67.168V74.8691H51.2402V80.5332ZM48.9883 58.0938H33.041V63.0859H43.1055C44.8633 63.0859 46.6211 63.0957 48.3789 63.0723C48.5859 63.0723 48.9648 62.877 48.9648 62.7637C49 61.2129 48.9883 59.6602 48.9883 58.0938ZM76.7578 72.0977C76.7578 72.4219 76.7461 72.709 76.7578 72.9961C76.8208 74.2526 76.3905 75.484 75.5586 76.4277C74.6348 77.5371 74.7266 78.9941 75.7305 79.9121C76.183 80.3287 76.7756 80.5599 77.3906 80.5599C78.0057 80.5599 78.5983 80.3287 79.0508 79.9121C80.0449 79.0117 80.1426 77.5215 79.2129 76.4238C78.3809 75.4799 77.9537 74.2466 78.0234 72.9902C78.0352 72.7051 78.0234 72.418 78.0234 72.0918L76.7578 72.0977ZM33.0293 72.0977V80.5332H34.7734V72.0996L33.0293 72.0977ZM37.0684 72.084V80.5215H38.7617V72.084H37.0684ZM59.1387 55.7949L59.1836 55.5684C58.7815 55.4378 58.3727 55.3289 57.959 55.2422C57.5293 55.1699 57.0859 55.168 56.6484 55.1387C54.3867 54.9883 52.125 54.7031 49.8652 54.7266C47.3105 54.75 44.7578 55.0391 42.207 55.2441C41.7891 55.2793 41.3867 55.4746 40.9766 55.5957L41.0371 55.791L59.1387 55.7949ZM24.6094 67.7734H21.2168L21.6797 71.1465H24.1387L24.6094 67.7734Z" fill="#454545"/>
<path d="M56.2326 69.0083C57.1896 69.0083 58.1486 68.9946 59.1057 69.0083C60.0158 69.0259 60.5783 69.5044 60.59 70.229C60.6018 70.9536 60.0314 71.4712 59.1408 71.479C57.2241 71.4946 55.3081 71.4946 53.3928 71.479C52.5549 71.4692 52.0119 70.9634 52.0002 70.2661C51.9885 69.5688 52.5295 69.0415 53.3674 69.0161C54.3205 68.9868 55.2736 69.0083 56.2326 69.0083Z" fill="#FF7D04"/>
<path d="M64.2638 69.0161C64.6815 68.9946 65.1001 68.9946 65.5177 69.0161C66.2306 69.0884 66.7013 69.4849 66.7111 70.2271C66.7209 70.9692 66.258 71.3989 65.5392 71.4556C64.6745 71.5181 63.8063 71.5181 62.9416 71.4556C62.2756 71.4009 61.8556 70.9771 61.8459 70.2622C61.8361 69.5474 62.2521 69.145 62.9142 69.0415C63.3611 69.0027 63.8104 68.9981 64.258 69.0278L64.2638 69.0161Z" fill="#FF7D04"/>
</svg>
