<svg width="100" height="100" viewBox="0 0 100 100" fill="none" xmlns="http://www.w3.org/2000/svg">
<path d="M28.5645 12.5977C28.8594 12.6934 29.1504 12.793 29.4531 12.8828C30.6864 13.2629 31.7705 14.018 32.5546 15.043C33.3387 16.0679 33.7839 17.3118 33.8281 18.6016C33.8672 20.4805 33.8281 22.3613 33.8438 24.2402C33.8535 26.1934 35.1523 27.5781 36.9688 27.582C38.7852 27.5859 40.0937 26.2148 40.1133 24.2617C40.127 22.5527 40.1133 20.8438 40.1133 19.1348C40.1133 18.1582 40.6094 17.5723 41.3809 17.5957C42.123 17.6191 42.6035 18.2012 42.6074 19.123C42.6178 20.8327 42.6178 22.5417 42.6074 24.25C42.5801 28.7715 38.2715 31.3965 34.209 29.3691C34.125 29.3262 34.0352 29.2949 33.8828 29.2285C33.8615 29.3244 33.8465 29.4216 33.8379 29.5195C33.8379 32.8398 33.8223 36.1602 33.8379 39.4805C33.8477 41.0312 34.877 42.2148 36.377 42.5332C37.0527 42.671 37.7552 42.5748 38.3689 42.2603C38.9827 41.9457 39.4711 41.4317 39.7539 40.8027C39.9605 40.2836 40.0691 39.7306 40.0742 39.1719C40.1133 37.4883 40.084 35.8047 40.0898 34.1191C40.0898 33.166 40.5371 32.6309 41.3066 32.6191C42.0762 32.6074 42.5781 33.1484 42.584 34.0742C42.5937 35.9063 42.627 37.7383 42.584 39.5664C42.5673 40.5165 42.3101 41.447 41.8363 42.2707C41.3626 43.0945 40.6878 43.7848 39.875 44.2771C39.0622 44.7695 38.1379 45.0478 37.1884 45.0861C36.2389 45.1244 35.2951 44.9214 34.4453 44.4961C34.2754 44.4141 34.1074 44.3242 33.875 44.2051V80.1094C34.5078 80.1094 35.1582 80.1504 35.8008 80.1094C38.4648 79.9023 40.2715 81.8926 40.0977 84.3887C40.096 84.6163 40.1071 84.8439 40.1309 85.0703H42.5371V50.1094C42.1641 50.1094 41.8066 50.1191 41.4473 50.1094C40.623 50.082 40.1113 49.6074 40.1016 48.877C40.0918 48.1465 40.6016 47.6523 41.416 47.6172C41.5879 47.6172 41.7578 47.6172 41.9297 47.6172H85.7422C86.9941 47.6172 87.5976 48.0254 87.5957 48.8672C87.5937 49.709 86.9902 50.1055 85.7324 50.1133H85.1562V85.1035C85.5254 85.1035 85.9062 85.0898 86.2871 85.1035C87.0469 85.1348 87.5703 85.6309 87.5879 86.3145C87.6055 86.998 87.0645 87.5527 86.2734 87.5938C86.1289 87.5938 85.9824 87.5938 85.8359 87.5938C62.0078 87.5938 38.1797 87.5977 14.3516 87.6055C13.5703 87.6055 12.9668 87.4258 12.5938 86.7148V85.9824C13.0898 84.8555 14.1562 85.1484 15.0898 85.0762C15.0898 84.707 15.0898 84.416 15.0898 84.127C15.1016 81.6602 16.6523 80.1172 19.1094 80.1055C19.832 80.1055 20.5566 80.1055 21.3125 80.1055V44.2207L20.7402 44.4941C17.4707 46.0664 13.7578 44.3867 12.7695 40.8887C12.7246 40.7324 12.6523 40.582 12.5938 40.4297V33.3984C13.0039 32.8262 13.5156 32.4355 14.2559 32.6875C14.9961 32.9395 15.1016 33.5938 15.0957 34.2969C15.0775 36.0065 15.0775 37.7148 15.0957 39.4219C15.086 40.1122 15.3051 40.7862 15.7189 41.3389C16.1326 41.8915 16.7177 42.2915 17.3828 42.4766C19.4512 43.041 21.3418 41.5527 21.3594 39.3047C21.3828 36.498 21.3594 33.6914 21.3594 30.8848V29.2129C21.0742 29.3438 20.8789 29.4277 20.6895 29.5195C19.9403 29.8827 19.1201 30.0756 18.2877 30.0844C17.4552 30.0932 16.6311 29.9177 15.8745 29.5705C15.1178 29.2232 14.4474 28.7129 13.9113 28.076C13.3751 27.4391 12.9866 26.6915 12.7734 25.8867C12.7227 25.7031 12.6562 25.5234 12.5977 25.3418V18.457C12.9883 17.8828 13.4336 17.4102 14.2148 17.6758C14.9961 17.9414 15.1074 18.541 15.0996 19.2559C15.0801 20.9629 15.0234 22.6758 15.127 24.377C15.1844 25.1207 15.4356 25.8365 15.8555 26.4531C16.6055 27.5352 18.0371 27.8555 19.2715 27.4121C20.5508 26.9512 21.3379 25.8262 21.3555 24.3594C21.377 22.4336 21.3125 20.5039 21.3848 18.5781C21.4746 16.1875 22.6523 14.4199 24.7617 13.3047C25.3477 12.9941 26.0254 12.8301 26.6602 12.5977H28.5645ZM82.5859 50.1406H45.1602V66.2949H82.5859V50.1406ZM45.1367 85.041H82.5605V68.8945H45.1367V85.041ZM31.3477 80.0781V19.4824C31.3477 19.2148 31.3477 18.9453 31.3477 18.6777C31.3199 18.0767 31.1481 17.4912 30.8466 16.9705C30.5451 16.4498 30.1229 16.0093 29.6154 15.686C29.1079 15.3628 28.5302 15.1663 27.9309 15.1132C27.3316 15.0601 26.7283 15.1519 26.1719 15.3809C24.7031 15.9805 23.8535 17.2969 23.8535 19.0273C23.8535 39.1419 23.8535 59.2591 23.8535 79.3789C23.8535 79.6113 23.8809 79.8438 23.8965 80.0918L31.3477 80.0781ZM17.5918 85.0547H37.6016C37.6016 84.623 37.6289 84.2363 37.6016 83.8535C37.5352 83.0566 37.0684 82.6133 36.2578 82.6113C30.474 82.6035 24.6908 82.6035 18.9082 82.6113C18.1133 82.6113 17.6484 83.0938 17.6016 83.8887C17.5781 84.2539 17.5918 84.6191 17.5918 85.0547Z" fill="#454545"/>
<path d="M67.6758 12.5977C68.6973 12.8945 69.7715 13.0762 70.7305 13.5098C74.8613 15.375 77.2891 18.6035 77.5274 23.1289C77.7507 27.0742 77.7337 31.0294 77.4766 34.9727C77.0859 40.5273 72.5156 44.8301 66.9297 45.0566C64.2852 45.166 61.5801 45.209 58.9863 44.7773C53.8945 43.9297 50.1504 39.2363 50.0977 34.0664C50.0645 30.627 50.0723 27.1875 50.0977 23.7461C50.1199 21.0742 51.0936 18.4978 52.8439 16.479C54.5943 14.4602 57.0067 13.1312 59.6484 12.7305C59.7866 12.6974 59.9219 12.653 60.0527 12.5977H67.6758ZM52.6641 28.7988H52.5957C52.5957 30.5312 52.5762 32.2637 52.5957 33.9961C52.6524 38.293 55.916 42.0449 60.2012 42.4687C62.4836 42.6989 64.7823 42.7191 67.0684 42.5293C71.5195 42.1387 74.7539 38.9395 75.0156 34.4863C75.2419 30.7137 75.2419 26.9309 75.0156 23.1582C74.752 18.8047 71.5742 15.6113 67.2383 15.1816C64.9787 14.96 62.7029 14.96 60.4434 15.1816C56.25 15.5977 53.2012 18.6094 52.7051 22.8086C52.4707 24.7773 52.6641 26.8008 52.6641 28.7988Z" fill="#454545"/>
<path d="M61.3496 55.0527H66.3555C66.3555 54.6621 66.3379 54.2539 66.3555 53.8535C66.3617 53.5324 66.4923 53.2262 66.7198 52.9994C66.9473 52.7727 67.2538 52.643 67.575 52.6377C67.8961 52.6324 68.2068 52.7518 68.4416 52.971C68.6764 53.1901 68.8171 53.4918 68.834 53.8125C68.8688 54.3238 68.8656 54.8369 68.8242 55.3477C68.7746 55.9499 68.5021 56.5119 68.0599 56.9237C67.6178 57.3355 67.0378 57.5675 66.4336 57.5742C64.7031 57.6042 62.9727 57.6042 61.2422 57.5742C60.6126 57.5661 60.0113 57.3117 59.567 56.8656C59.1227 56.4195 58.8708 55.8171 58.8652 55.1875C58.8457 54.75 58.8438 54.3105 58.8652 53.8711C58.8984 53.1152 59.4082 52.5996 60.0938 52.5996C60.4148 52.6026 60.7227 52.728 60.9545 52.9501C61.1864 53.1721 61.3249 53.4743 61.3418 53.7949C61.3809 54.1992 61.3496 54.6094 61.3496 55.0527Z" fill="#FF7D04"/>
<path d="M61.3398 73.7988H66.3555C66.3555 73.3789 66.3398 72.9941 66.3555 72.6113C66.3926 71.873 66.9238 71.3437 67.6016 71.3476C68.2793 71.3516 68.8027 71.8848 68.8379 72.6269C68.8643 73.0895 68.8643 73.5531 68.8379 74.0156C68.8067 74.6319 68.5424 75.2134 68.0985 75.642C67.6546 76.0707 67.0643 76.3146 66.4473 76.3242C64.7168 76.3555 62.9863 76.3555 61.2559 76.3242C60.6263 76.3181 60.0241 76.0657 59.5784 75.6211C59.1326 75.1764 58.8787 74.5749 58.8711 73.9453C58.8516 73.4844 58.8477 73.0195 58.8711 72.5566C58.8749 72.2485 58.9949 71.9532 59.2071 71.7297C59.4193 71.5063 59.7081 71.3712 60.0156 71.3516C60.3351 71.3322 60.6498 71.4366 60.8942 71.6432C61.1386 71.8498 61.294 72.1427 61.3281 72.4609C61.3577 72.9063 61.3617 73.353 61.3398 73.7988Z" fill="#FF7D04"/>
<path d="M66.5156 20.179C66.2461 20.6321 66.1152 20.9876 65.873 21.2337C63.4381 23.6946 60.9896 26.1451 58.5273 28.5852C57.9414 29.1614 57.2207 29.1712 56.707 28.6516C56.1933 28.1321 56.2148 27.386 56.7754 26.8216C59.2324 24.3476 61.6979 21.8802 64.1718 19.4192C64.5761 19.0169 65.1035 18.8626 65.5742 19.1419C65.9492 19.3645 66.1914 19.8079 66.5156 20.179Z" fill="#FF7D04"/>
<path d="M60.2382 20.1497C60.0156 20.5774 59.9082 20.9075 59.7011 21.1536C59.3354 21.5738 58.944 21.9711 58.5293 22.343C57.9433 22.8782 57.1972 22.8782 56.7089 22.3704C56.2207 21.8626 56.2441 21.1536 56.7539 20.6009C57.166 20.1555 57.5566 19.6516 58.0625 19.345C58.467 19.1139 58.9462 19.0515 59.3964 19.1712C59.7382 19.2923 59.9609 19.7981 60.2382 20.1497Z" fill="#FF7D04"/>
</svg>
