<svg width="100" height="100" viewBox="0 0 100 100" fill="none" xmlns="http://www.w3.org/2000/svg">
<path d="M12.5977 58.3007C12.9355 57.6992 13.4551 57.5195 14.1289 57.5449C15.3418 57.5859 16.5566 57.5566 17.8516 57.5566V54.1289C17.8516 52.8847 17.8398 51.6386 17.8516 50.3945C17.8672 48.9863 18.7891 48.0605 20.1953 48.0507C21.4414 48.0364 22.6868 48.0364 23.9316 48.0507C25.4043 48.0625 26.3398 48.998 26.3477 50.4921C26.3594 52.8105 26.3477 55.1289 26.3477 57.5058H29.3594C29.3711 57.2675 29.3926 57.0078 29.3945 56.75C29.3945 54.6269 29.3945 52.5019 29.3945 50.3789C29.416 46.166 32.2051 43.2265 36.4062 43.1757C42.2402 43.1035 48.0762 43.1543 53.9102 43.1601C54.7422 43.1601 55.1797 43.4941 55.2324 44.123C55.2852 44.7519 55.0078 45.1679 54.3887 45.2949C54.1003 45.3425 53.8075 45.3589 53.5156 45.3437C47.9004 45.3437 42.2852 45.3437 36.6699 45.3437C34.0977 45.3437 32.2773 46.6894 31.7246 48.955C31.6374 49.3349 31.5948 49.7235 31.5977 50.1132C31.5872 54.2643 31.5872 58.4147 31.5977 62.5644C31.5977 62.7089 31.6211 62.8535 31.6387 63.0546H35.2852C35.2852 62.1738 35.2852 61.2968 35.2852 60.4355C35.2949 58.2441 36.6016 56.9199 38.7891 56.9199C40.7161 56.9108 42.6445 56.9108 44.5742 56.9199C46.709 56.9336 48.0332 58.2734 48.0469 60.4062C48.0469 61.2793 48.0469 62.1523 48.0469 63.0703H52.1484C52.1484 62.2285 52.1484 61.3847 52.1484 60.541C52.1484 58.2187 53.4492 56.9218 55.7773 56.9179C57.5846 56.9179 59.3913 56.9179 61.1973 56.9179C63.6406 56.9179 64.9082 58.1757 64.9082 60.5976C64.9082 61.4004 64.9082 62.2011 64.9082 63.0586H68.5977V62.2617C68.5977 58.332 68.5977 54.4017 68.5977 50.4707C68.5977 47.2773 66.6992 45.3711 63.5059 45.3457C61.918 45.3339 60.332 45.3574 58.7441 45.3457C57.793 45.3339 57.1816 44.6191 57.5723 43.9004C57.7539 43.5644 58.2559 43.205 58.6211 43.1972C60.6699 43.1464 62.7227 43.0976 64.7695 43.2421C67.8945 43.4648 70.6289 46.33 70.7441 49.4707C70.8398 51.8339 70.7812 54.205 70.793 56.5742V57.5019H73.8379V56.748C73.8379 54.6972 73.8379 52.6464 73.8379 50.5976C73.8379 48.9629 74.75 48.0586 76.3769 48.0586C77.5742 48.0586 78.7695 48.0586 79.9668 48.0586C81.4141 48.0722 82.332 48.9921 82.3398 50.4511C82.3535 52.5254 82.3398 54.6015 82.3398 56.6757V57.5703H86.0312C87.2754 57.5703 87.5938 57.8867 87.5938 59.123V71.7187C87.5938 72.998 87.293 73.291 85.9844 73.2929H75.9766V74.9961C76.668 74.9961 77.3438 74.9863 78.0195 74.9961C78.8828 75.0117 79.2637 75.3867 79.2695 76.2558C79.2799 78.1113 79.2799 79.9668 79.2695 81.8222C79.2695 82.6757 78.8652 83.0683 78.002 83.0703C74.4381 83.0781 70.8737 83.0781 67.3086 83.0703C66.5137 83.0703 66.043 82.6308 66.0547 81.957C66.0664 81.2832 66.5352 80.8808 67.3457 80.8789C70.2988 80.8789 73.2526 80.8789 76.207 80.8789H77.0352V77.2168H23.1621V80.8593H62.1406C63.3125 80.8593 63.8633 81.2285 63.8398 81.9863C63.8164 82.7441 63.291 83.0566 62.1582 83.0566H22.6074C21.1758 83.0566 20.9238 82.7988 20.9238 81.3398C20.9238 79.7291 20.9238 78.1178 20.9238 76.5058C20.9238 75.2929 21.2324 74.9804 22.4219 74.9765C23.0078 74.9765 23.5938 74.9765 24.2246 74.9765V73.2734H23.4102C20.2852 73.2734 17.1602 73.2597 14.0352 73.2832C13.3789 73.2832 12.8984 73.0878 12.5977 72.5019V58.3007ZM73.6777 74.957C73.6777 72.4765 73.7129 70.0742 73.6484 67.6543C73.6367 67.1933 73.3086 66.6875 73.0039 66.2988C72.3887 65.5175 71.5059 65.3046 70.5234 65.3066C56.9062 65.3183 43.2878 65.3183 29.668 65.3066C29.4473 65.3066 29.2266 65.3066 29.0098 65.3222C27.7227 65.4394 26.5527 66.5117 26.5195 67.7929C26.4609 70.1367 26.5098 72.4804 26.5195 74.8242C26.5195 74.8593 26.5742 74.8964 26.623 74.955L73.6777 74.957ZM14.8438 59.7832V71.0293H24.2988C24.2988 69.9589 24.2793 68.9375 24.2988 67.9199C24.3136 67.2585 24.4657 66.6074 24.7454 66.0079C25.0251 65.4084 25.4264 64.8736 25.9238 64.4375C26.873 63.5566 28.0234 63.1445 29.3516 63.0898V59.7832H14.8438ZM70.8477 63.0449C74.168 63.3164 76.2129 65.6894 75.9258 69.1523C75.875 69.7734 75.9258 70.4004 75.9258 71.0254H85.3516V59.8086H70.8418L70.8477 63.0449ZM37.5 63.0625H45.8574C45.8574 62.0644 45.8789 61.1093 45.8574 60.1699C45.8398 59.5488 45.4668 59.1425 44.8496 59.1367C42.7324 59.1119 40.6152 59.1119 38.498 59.1367C38.3681 59.1302 38.2382 59.1511 38.1169 59.1979C37.9955 59.2447 37.8852 59.3164 37.7932 59.4084C37.7012 59.5004 37.6295 59.6107 37.5827 59.7321C37.5359 59.8534 37.5151 59.9833 37.5215 60.1132C37.4668 61.0781 37.5 62.0488 37.5 63.0625ZM62.7109 63.0742C62.7109 62.0429 62.7441 61.0507 62.6992 60.0605C62.6719 59.4746 62.2598 59.1347 61.6738 59.1308C59.5801 59.1139 57.487 59.1139 55.3945 59.1308C54.8086 59.1308 54.4043 59.4941 54.375 60.0761C54.3262 61.0625 54.3613 62.0546 54.3613 63.0742H62.7109ZM20.0684 57.498H24.1094V50.2949H20.0684V57.498ZM76.1035 50.2597V57.5097H80.0781V50.2597H76.1035Z" fill="#454545"/>
<path d="M75.3066 27.373C75.3066 30.0098 75.3066 32.6465 75.3066 35.2812C75.3066 36.8008 74.5859 37.5156 73.0625 37.5176C69.8398 37.5176 66.6178 37.5176 63.3965 37.5176C61.9277 37.5176 61.2051 36.793 61.2031 35.3066C61.2031 29.9863 61.2031 24.6654 61.2031 19.3438C61.2031 17.873 61.9434 17.1406 63.4102 17.1367C66.6563 17.1367 69.9023 17.1367 73.1484 17.1367C74.5566 17.1367 75.2969 17.8965 75.3066 19.3184C75.3125 22.0039 75.3066 24.6895 75.3066 27.373ZM73.0664 19.375H63.3965C63.3965 20.707 63.4258 21.9961 63.3828 23.2812C63.3633 23.8535 63.5469 24.0625 64.1035 24.2051C67.3789 25.0469 70.2754 26.5801 72.6328 29.0508C72.7422 29.168 72.8691 29.2676 73.0664 29.4414V19.375ZM63.4414 26.3066V35.2812H73.1094C73.1094 34.4199 73.1211 33.5957 73.0977 32.7715C73.0778 32.5843 72.9927 32.4101 72.8574 32.2793C71.8125 31.2891 70.7891 30.2715 69.6895 29.3496C67.8867 27.834 65.7852 26.9004 63.4414 26.3066Z" fill="#454545"/>
<path d="M43.0451 27.3184C43.0451 24.6816 43.0451 22.0449 43.0451 19.4102C43.0451 17.8477 43.7658 17.1367 45.3302 17.1348C48.5269 17.1348 51.7241 17.1348 54.922 17.1348C56.4025 17.1348 57.1447 17.8633 57.1466 19.3223C57.1466 24.6673 57.1466 30.013 57.1466 35.3594C57.1466 36.7852 56.4045 37.5078 54.9728 37.5078C51.7267 37.5156 48.48 37.5156 45.2326 37.5078C43.7697 37.5078 43.049 36.7754 43.0451 35.293C43.0392 32.6406 43.0451 29.9785 43.0451 27.3184ZM54.9142 25.2324C51.8849 24.7852 48.9142 24.7441 45.9611 25.5371C45.4279 25.6797 45.2189 25.8613 45.2267 26.4492C45.2619 29.1562 45.2404 31.8652 45.2443 34.5723C45.2443 34.8066 45.2658 35.041 45.2795 35.2734H54.9142V25.2324ZM45.2697 23.4922C48.4806 22.5156 51.674 22.5918 54.8947 22.998V19.377H45.2697V23.4922Z" fill="#454545"/>
<path d="M27.0801 30.2383C29.2331 30.1316 31.3438 29.6006 33.291 28.6758C34.334 28.2012 35.3496 27.6699 36.3633 27.1367C36.5449 27.0391 36.7774 26.8066 36.7793 26.6367C36.8067 24.2266 36.7969 21.8164 36.7969 19.3691H27.086C27.086 20.5273 27.086 21.666 27.086 22.8047C27.1017 23.0723 27.0826 23.3408 27.0293 23.6035C26.8789 24.168 26.4746 24.4805 25.8945 24.4277C25.3145 24.375 24.918 24.0371 24.918 23.4336C24.8906 21.8965 24.8731 20.3574 24.9317 18.8203C24.9627 18.3613 25.1689 17.9318 25.5077 17.6206C25.8465 17.3094 26.292 17.1404 26.752 17.1484C30.2168 17.1237 33.6823 17.1237 37.1485 17.1484C38.3203 17.1602 39.0039 18.0059 39.0059 19.3242C39.0059 24.6628 39.0059 30.0078 39.0059 35.3594C39.0059 35.4805 39.0059 35.6035 38.9922 35.7246C38.9102 36.7285 38.1934 37.4922 37.1953 37.498C33.7057 37.5228 30.2155 37.5228 26.7246 37.498C26.4846 37.4991 26.2467 37.4522 26.025 37.3602C25.8034 37.2681 25.6023 37.1327 25.4336 36.9618C25.265 36.791 25.1322 36.5882 25.0429 36.3654C24.9537 36.1425 24.9099 35.9041 24.9141 35.6641C24.8848 33.0273 24.8926 30.3906 24.9141 27.7559C24.9064 27.615 24.9273 27.474 24.9755 27.3415C25.0237 27.2089 25.0982 27.0874 25.1945 26.9843C25.2909 26.8813 25.407 26.7987 25.536 26.7417C25.6651 26.6846 25.8043 26.6542 25.9453 26.6523C26.0915 26.6443 26.2379 26.6664 26.3751 26.7174C26.5124 26.7683 26.6378 26.847 26.7433 26.9485C26.8488 27.05 26.9324 27.1722 26.9886 27.3074C27.0449 27.4426 27.0727 27.588 27.0703 27.7344C27.1074 28.5371 27.0801 29.3398 27.0801 30.2383ZM36.7461 35.2832V29.3906C33.6895 31.0957 30.5625 32.3027 27.1231 32.4648V35.2832H36.7461Z" fill="#454545"/>
<path d="M50.0977 53.1982C48.8301 53.1982 47.5586 53.1982 46.291 53.1982C45.4023 53.1982 44.9492 52.8076 44.9473 52.1025C44.9453 51.3975 45.3926 51.0127 46.2891 51.0088C48.8281 50.9971 51.3672 50.9971 53.9063 51.0088C54.8008 51.0088 55.252 51.3994 55.252 52.1006C55.252 52.8018 54.7949 53.1885 53.9082 53.1982C52.6348 53.2139 51.3672 53.1982 50.0977 53.1982Z" fill="#FF7D04"/>
<path d="M22.1212 63.212C22.4845 63.212 22.8517 63.1944 23.2149 63.212C23.3503 63.2088 23.4848 63.2329 23.6107 63.2827C23.7365 63.3325 23.8511 63.407 23.9476 63.5019C24.0442 63.5968 24.1207 63.7101 24.1726 63.8351C24.2246 63.96 24.2509 64.0942 24.2501 64.2295C24.2892 64.8428 23.9356 65.2979 23.3341 65.3545C22.5109 65.4297 21.6826 65.4297 20.8595 65.3545C20.2735 65.3018 19.9005 64.8682 19.9337 64.2412C19.9669 63.6143 20.3243 63.2647 20.9532 63.212C21.3399 63.1885 21.7325 63.212 22.1212 63.212Z" fill="#FF7D04"/>
<path d="M78.1037 63.1211C78.467 63.1211 78.8342 63.1074 79.1975 63.1211C79.8225 63.1504 80.2034 63.5 80.26 64.1113C80.3166 64.7226 79.9768 65.1972 79.3772 65.2558C78.5328 65.3375 77.6825 65.3375 76.8381 65.2558C76.2385 65.1972 75.8967 64.7226 75.9534 64.1093C76.01 63.4961 76.383 63.1445 77.0139 63.1191C77.3733 63.1094 77.7346 63.1211 78.1037 63.1211Z" fill="#FF7D04"/>
</svg>
