<svg width="100" height="100" viewBox="0 0 100 100" fill="none" xmlns="http://www.w3.org/2000/svg">
<path d="M57.7148 12.5977C58.4219 12.7637 59.1426 12.8789 59.8301 13.1016C64.9765 14.7539 68.0117 18.2695 68.9863 23.5742C69.1387 24.4141 69.2715 25.2578 69.4043 26.1016C69.5488 27.0117 69.2344 27.584 68.5469 27.6895C67.8594 27.7949 67.3945 27.3594 67.2305 26.4629C66.9648 25.0254 66.789 23.5605 66.373 22.166C65.7387 20.0699 64.456 18.229 62.7093 16.908C60.9626 15.587 58.8419 14.854 56.6523 14.8145C52.3086 14.7559 47.9629 14.7656 43.6172 14.8145C41.1263 14.8271 38.7207 15.7229 36.8284 17.3427C34.9361 18.9625 33.6799 21.2011 33.2832 23.6602C32.248 29.8652 31.2637 36.0801 30.2578 42.291C30.2441 42.3809 30.2422 42.4727 30.2246 42.6582L31.7617 42.416C33.1289 42.2012 34.4961 41.9707 35.8828 41.7734C36.8047 41.6426 37.3398 41.9844 37.4219 42.6973C37.5039 43.4102 37.0312 43.8184 36.1269 43.959C34.2949 44.2422 32.4629 44.5254 30.6367 44.8418C29.8715 44.9658 29.1742 45.3546 28.6665 45.9404C28.1589 46.5263 27.8732 47.2718 27.8594 48.0469C27.8229 49.2188 27.8229 50.3906 27.8594 51.5625C27.916 53.3496 29.2012 54.6699 30.9844 54.832C31.2519 54.8555 31.5215 54.8594 31.789 54.8594C43.9961 54.8594 56.2025 54.8594 68.4082 54.8594C69.3281 54.8594 70.2129 54.7734 70.9746 54.1855C71.3898 53.8843 71.7291 53.4903 71.9654 53.035C72.2017 52.5797 72.3286 52.0755 72.3359 51.5625C72.3652 50.3906 72.3691 49.2188 72.3359 48.0469C72.2929 46.3809 71.2617 45.1309 69.6015 44.7891C65.0081 43.8618 60.3508 43.2846 55.6699 43.0625C50.9875 42.8251 46.2941 42.9191 41.625 43.3438C41.4549 43.3597 41.2841 43.3669 41.1133 43.3652C40.4082 43.3652 39.9648 42.9746 39.9414 42.3359C39.918 41.6973 40.3183 41.2441 41.0117 41.1836C42.3496 41.0664 43.6875 40.9629 45.0273 40.8887C50.9782 40.5543 56.9471 40.7504 62.8633 41.4746C65.1601 41.7578 67.4433 42.1543 69.834 42.5137C69.6758 41.5039 69.5234 40.5098 69.3613 39.5156C68.9433 36.9395 68.5137 34.3672 68.1055 31.7891C67.957 30.8477 68.2598 30.3125 68.9433 30.1934C69.6269 30.0742 70.1269 30.5449 70.2812 31.4961C70.916 35.3691 71.543 39.2441 72.1933 43.1172C72.2464 43.3924 72.3828 43.6447 72.584 43.8398C73.7051 44.8535 74.3984 46.0977 74.4824 47.5957C74.5869 49.0574 74.5869 50.5247 74.4824 51.9863C74.2344 54.8477 72.1133 56.8203 69.2285 57.0332L68.1797 57.1055C68.375 58.4258 68.5566 59.7188 68.7519 61.0117C69.7598 67.6667 70.7689 74.3216 71.7793 80.9766C71.9922 82.375 72.209 83.7715 72.4141 85.1719C72.6094 86.498 71.7519 87.543 70.4258 87.5957C70.0586 87.6094 69.6914 87.6094 69.3262 87.5957C68.3887 87.5586 67.6758 87.0742 67.4023 86.1738C65.9375 81.3483 64.4857 76.5176 63.0469 71.6816C62.9933 71.5374 62.9714 71.3832 62.9827 71.2297C62.994 71.0762 63.0382 70.9269 63.1123 70.792C63.1864 70.6571 63.2887 70.5398 63.4122 70.4479C63.5357 70.3561 63.6776 70.2919 63.8281 70.2598C64.4394 70.1016 64.9531 70.4258 65.1797 71.168C66.2109 74.5742 67.2357 77.9818 68.2539 81.3906C68.6536 82.7175 69.054 84.0443 69.4551 85.3711H70.2363C68.804 75.9115 67.3717 66.487 65.9394 57.0977H60.9668C61.5293 58.9785 62.0683 60.793 62.6113 62.6055C62.9629 63.7773 63.3203 64.9375 63.6699 66.1035C63.9629 67.0801 63.7344 67.6895 62.998 67.8867C62.3203 68.0703 61.8437 67.6914 61.5488 66.7148C61.2832 65.8281 61.0566 64.9258 60.7441 64.0566C60.6009 63.7104 60.3733 63.4056 60.082 63.1699C58.8496 62.1289 57.4258 61.8672 55.8144 61.9043C51.8125 62 47.8066 61.9707 43.8027 61.9141C42.6896 61.8766 41.5919 62.182 40.6582 62.7891C39.9547 63.2039 39.4436 63.88 39.2363 64.6699C37.1562 71.7012 35.0371 78.7324 32.9258 85.752C32.7933 86.1691 32.5664 86.5501 32.2626 86.8652C31.9589 87.1802 31.5865 87.421 31.1744 87.5686C30.7624 87.7162 30.3219 87.7667 29.8871 87.7162C29.4524 87.6657 29.0352 87.5155 28.668 87.2773C28.3279 87.0756 28.0581 86.7742 27.895 86.4141C27.7318 86.0539 27.6833 85.6523 27.7558 85.2637C28.8301 78.1504 29.9095 71.0378 30.9941 63.9258C31.3008 61.9004 31.6133 59.875 31.916 57.8496C31.9531 57.6152 31.9531 57.375 31.9726 57.1152C31.2969 57.0547 30.6562 57.0605 30.043 56.9316C27.789 56.4453 26.0215 54.668 25.7812 52.3711C25.6074 50.709 25.6719 49.0098 25.7578 47.334C25.8242 46.0469 26.5039 44.9902 27.4121 44.0781C27.6409 43.8413 27.7951 43.5425 27.8555 43.2188C28.9284 36.7734 29.9863 30.3281 31.0293 23.8828C32.0058 17.7754 35.9902 13.748 42.0762 12.7246C42.1665 12.6961 42.2531 12.6568 42.334 12.6074L57.7148 12.5977ZM34.2441 57.0977L29.9668 85.3027C30.6465 85.5703 30.7871 85.2344 30.9219 84.7832C33.1601 77.2949 35.4062 69.8079 37.6601 62.3223C38.1758 60.6035 38.6914 58.8848 39.2226 57.0957L34.2441 57.0977ZM59.5312 59.9941C59.3125 59.2559 59.0469 58.4492 58.8437 57.627C58.7265 57.1543 58.4863 57.0215 58.0215 57.041C57.0215 57.0723 56.0215 57.0508 55.0215 57.0508C50.7545 57.0508 46.487 57.0508 42.2187 57.0508C41.9746 57.0508 41.5605 57.1094 41.5137 57.2461C41.1777 58.1836 40.918 59.1484 40.6621 60.0098C41.3672 59.9102 42.0019 59.7422 42.6387 59.7383C47.5866 59.7161 52.5345 59.7161 57.4824 59.7383C58.1523 59.7441 58.8144 59.9024 59.5312 59.9941Z" fill="#454545"/>
<path d="M66.4787 52.4941C65.5217 52.4941 64.5627 52.5078 63.6056 52.4941C62.6955 52.4766 62.133 51.998 62.1213 51.2734C62.1096 50.5488 62.6799 50.0312 63.5705 50.0234C65.4872 50.0078 67.4032 50.0078 69.3185 50.0234C70.1564 50.0332 70.6994 50.5391 70.7111 51.2363C70.7228 51.9336 70.1818 52.4609 69.3439 52.4863C68.3908 52.5156 67.4377 52.4941 66.4787 52.4941Z" fill="#FF7D04"/>
<path d="M58.4475 52.4863C58.0298 52.5078 57.6112 52.5078 57.1936 52.4863C56.4807 52.4141 56.01 52.0176 56.0002 51.2754C55.9904 50.5332 56.4533 50.1035 57.1721 50.0469C58.0368 49.9844 58.905 49.9844 59.7697 50.0469C60.4357 50.1016 60.8557 50.5254 60.8654 51.2402C60.8752 51.9551 60.4592 52.3574 59.7971 52.4609C59.3502 52.4997 58.9009 52.5043 58.4533 52.4746L58.4475 52.4863Z" fill="#FF7D04"/>
</svg>
