<svg width="100" height="100" viewBox="0 0 100 100" fill="none" xmlns="http://www.w3.org/2000/svg">
<path d="M28.7813 22.5762C28.7813 21.4492 28.7715 20.3457 28.7813 19.2422C28.793 18.1875 29.1914 17.7852 30.2422 17.7344C30.4512 17.7344 30.6621 17.7344 30.8711 17.7344H83.2031C83.5028 17.7253 83.8028 17.7337 84.1016 17.7598C84.834 17.8457 85.2207 18.2735 85.2617 19.0078C85.2734 19.2481 85.2617 19.4883 85.2617 19.7266V75.9102C85.2617 77.6055 84.9668 77.9024 83.291 77.9024H80.3613C80.3613 78.9785 80.3613 80.0117 80.3613 81.0449C80.3613 82.4258 79.9883 82.791 78.6035 82.791H25.6465C24.1934 82.791 23.8887 82.4922 23.8887 81.0723C23.8887 62.1647 23.8887 43.2565 23.8887 24.3477C23.8887 22.9805 24.2148 22.6719 25.5996 22.666C26.5586 22.666 27.5176 22.666 28.4766 22.6543C28.58 22.6363 28.6819 22.6101 28.7813 22.5762ZM39.8828 44.8106C39.8594 45.0762 39.8203 45.3086 39.8203 45.541C39.8203 56.8692 39.8145 68.1973 39.8027 79.5254C39.8027 80.2207 40.0352 80.375 40.6836 80.3692C43.8301 80.3399 46.9785 80.3574 50.125 80.3535C50.3623 80.3427 50.599 80.3199 50.834 80.2852V44.8106H39.8828ZM53.3945 25.1445V60.6465H64.3223V25.1445H53.3945ZM77.834 80.3203V44.8164H66.9297V80.3203H77.834ZM37.3438 25.1719H26.3672V60.6113H37.3438V25.1719ZM31.2891 22.666H79.0469C79.8477 22.666 80.25 23.1211 80.3438 23.8731C80.3685 24.2019 80.3737 24.5319 80.3594 24.8613V75.377H82.7266V20.2559H31.291L31.2891 22.666ZM50.8398 25.1641H39.8828V42.2461H50.8418L50.8398 25.1641ZM26.377 63.211V80.2735H37.3379V63.2031L26.377 63.211ZM66.9219 25.1445V42.2402H77.8242V25.1445H66.9219ZM53.3926 80.2832H64.3418V63.2305H53.3926V80.2832Z" fill="#454545"/>
<path d="M19.5312 20.2168C20.7891 21.6152 20.9492 22.1308 20.3652 22.7558C19.748 23.4297 19.2187 23.2812 17.748 22.0195C16.1543 23.2734 15.7246 23.3984 15.123 22.7851C14.5215 22.1719 14.6484 21.75 15.9082 20.2148C15.3945 19.4336 14.0859 18.8242 15.1406 17.6074C15.6797 16.9863 16.2539 17.1816 17.7324 18.3887C18.5137 17.8574 19.1992 16.5078 20.3164 17.6523C21.3808 18.75 20.1172 19.4258 19.5312 20.2168Z" fill="#FF7D04"/>
<path d="M68.0566 58.8379C68.0566 57.5234 68.0449 56.209 68.0566 54.8926C68.0683 53.8984 68.5273 53.3535 69.3008 53.3613C70.0742 53.3691 70.5058 53.918 70.5078 54.9238C70.5078 57.5527 70.5078 60.1823 70.5078 62.8125C70.5078 63.7891 70.0625 64.375 69.3223 64.4023C68.541 64.4277 68.0644 63.8379 68.0547 62.791C68.0469 61.4668 68.0566 60.1562 68.0566 58.8379Z" fill="#FF7D04"/>
<path d="M70.5078 49.707C70.5078 50.125 70.5352 50.5449 70.5078 50.9609C70.5071 51.1128 70.476 51.263 70.4164 51.4027C70.3567 51.5423 70.2698 51.6687 70.1606 51.7742C70.0514 51.8798 69.9221 51.9624 69.7805 52.0173C69.6389 52.0722 69.4878 52.0982 69.3359 52.0937C68.7031 52.1211 68.1816 51.7851 68.1328 51.1289C68.0586 50.1485 68.0586 49.164 68.1328 48.1836C68.1855 47.5293 68.7188 47.207 69.3418 47.2207C69.6321 47.214 69.9137 47.3199 70.1277 47.5161C70.3418 47.7123 70.4717 47.9837 70.4902 48.2734C70.5225 48.7506 70.5264 49.2293 70.502 49.707H70.5078Z" fill="#FF7D04"/>
<path d="M34.9082 46.0273C34.9082 47.166 34.918 48.3047 34.9082 49.4434C34.8984 50.2988 34.4453 50.8477 33.7539 50.8867C33.0273 50.9277 32.4766 50.373 32.4688 49.4766C32.4453 47.1328 32.4453 44.7956 32.4688 42.4648C32.4785 41.5977 32.9707 41.0781 33.6758 41.0664C34.3809 41.0547 34.8984 41.6269 34.9102 42.5215C34.918 43.6894 34.9082 44.8594 34.9082 46.0273Z" fill="#FF7D04"/>
<path d="M30.0176 31.7949C30.0176 32.752 30.0313 33.7109 30.0176 34.668C30 35.5781 29.5215 36.1406 28.7969 36.1523C28.0723 36.1641 27.5547 35.5938 27.5469 34.7031C27.5312 32.7865 27.5312 30.8704 27.5469 28.9551C27.5566 28.1172 28.0625 27.5742 28.7598 27.5625C29.457 27.5508 29.9844 28.0918 30.0098 28.9297C30.0391 29.8828 30.0176 30.8359 30.0176 31.7949Z" fill="#FF7D04"/>
<path d="M30.0098 39.8262C30.0313 40.2439 30.0313 40.6624 30.0098 41.0801C29.9375 41.793 29.541 42.2637 28.7988 42.2734C28.0566 42.2832 27.627 41.8203 27.5703 41.1015C27.5078 40.2368 27.5078 39.3686 27.5703 38.5039C27.625 37.8379 28.0488 37.418 28.7637 37.4082C29.4785 37.3984 29.8809 37.8144 29.9844 38.4765C30.0232 38.9235 30.0277 39.3727 29.998 39.8203L30.0098 39.8262Z" fill="#FF7D04"/>
<path d="M76.6328 28.8887C76.6543 29.3057 76.6543 29.7236 76.6328 30.1406C76.5605 30.8437 76.1074 31.2168 75.4297 31.2148C74.791 31.2148 74.3105 30.8633 74.2715 30.2012C74.2109 29.249 74.2109 28.294 74.2715 27.3418C74.3145 26.6777 74.8262 26.3398 75.4434 26.3476C75.7338 26.3294 76.0198 26.4264 76.2392 26.6176C76.4586 26.8088 76.5937 27.0789 76.6152 27.3691C76.6485 27.875 76.6524 28.3823 76.627 28.8887H76.6328Z" fill="#FF7D04"/>
<path d="M58.2598 73.0469C58.2598 71.8496 58.2461 70.6504 58.2598 69.4531C58.2715 68.6152 58.7715 68.0469 59.4766 68.0859C60.2578 68.1348 60.6758 68.6016 60.6797 69.377C60.6914 71.7734 60.7012 74.168 60.6797 76.5645C60.6699 77.4063 60.127 77.9512 59.418 77.877C58.6367 77.7988 58.2598 77.3242 58.2598 76.5449V73.0469Z" fill="#FF7D04"/>
</svg>
