<svg width="100" height="100" viewBox="0 0 100 100" fill="none" xmlns="http://www.w3.org/2000/svg">
<path d="M12.5977 26.9531C13.2109 25.2793 14.4219 24.7031 16.1777 24.707C33.071 24.7435 49.9648 24.7513 66.8594 24.7305C67.1525 24.72 67.446 24.7272 67.7383 24.7519C67.9879 24.7802 68.2197 24.8951 68.3932 25.0768C68.5667 25.2585 68.671 25.4953 68.6877 25.746C68.7044 25.9966 68.6326 26.2452 68.4848 26.4483C68.337 26.6515 68.1226 26.7962 67.8789 26.8574C67.5685 26.9189 67.2515 26.9412 66.9355 26.9238C50.0176 26.9238 33.099 26.9238 16.1797 26.9238C14.8125 26.9238 14.7949 26.9394 14.7949 28.3242C14.7949 29.0312 14.8164 29.7402 14.7949 30.4473C14.7734 31.1543 15.0859 31.4375 15.7715 31.3945C15.9414 31.3848 16.1133 31.3945 16.2852 31.3945H83.9434C84.1875 31.3945 84.4336 31.3945 84.6758 31.3945C85.1484 31.3769 85.3945 31.125 85.3965 30.6543C85.3965 29.7012 85.3867 28.75 85.3965 27.7969C85.4082 27.1113 85.0449 26.9219 84.4199 26.9258C81.5391 26.9375 78.6582 26.9258 75.7773 26.9258C74.8242 26.9258 73.8731 26.9375 72.9199 26.9258C72.1152 26.9141 71.6309 26.4961 71.6211 25.8398C71.6113 25.1836 72.0977 24.7383 72.8887 24.7383C76.8438 24.7383 80.7988 24.7207 84.7539 24.7383C86.375 24.7383 87.5449 25.9609 87.5781 27.5859C87.5957 28.5859 87.5898 29.5879 87.5781 30.5898C87.5586 32.3945 86.4063 33.5449 84.5977 33.5879C84.2852 33.5879 83.9727 33.5879 83.5527 33.5879C83.5527 34.3398 83.5527 35.0156 83.5527 35.6894C83.5527 36.6406 83.582 37.5976 83.5117 38.5449C83.4567 39.4322 83.0757 40.2678 82.4419 40.8912C81.8081 41.5146 80.9662 41.8816 80.0781 41.9219C79.2324 41.9765 78.3789 41.9316 77.418 41.9316V42.9433C77.418 52.5137 77.418 62.084 77.418 71.6543C77.418 72.7754 77.1836 73.8027 76.3184 74.5683C75.3027 75.4785 74.1094 75.7207 72.8457 75.2324C71.582 74.7441 70.8145 73.789 70.7168 72.418C70.459 68.791 70.2344 65.1601 70.0078 61.5312C69.6081 55.125 69.2103 48.7181 68.8145 42.3105C68.7997 42.2051 68.7782 42.1007 68.75 41.998H31.3926C31.2891 43.5195 31.1816 44.998 31.0898 46.4785C30.6289 53.9342 30.1699 61.3893 29.7129 68.8437C29.6406 70.0371 29.5664 71.2305 29.459 72.4219C29.3837 73.2424 29.0078 74.0061 28.4034 74.5663C27.7991 75.1264 27.009 75.4433 26.1852 75.4562C25.3613 75.469 24.5617 75.1768 23.9402 74.6358C23.3187 74.0948 22.9192 73.3432 22.8184 72.5254C22.7623 71.9184 22.7434 71.3085 22.7617 70.6992C22.7617 67.3307 22.7617 63.9616 22.7617 60.5918C22.7488 60.2998 22.7758 60.0074 22.8418 59.7226C22.9961 59.1797 23.4082 58.9414 23.9551 58.9765C24.1904 58.9793 24.4169 59.067 24.5927 59.2235C24.7686 59.38 24.882 59.5947 24.9121 59.8281C24.9493 60.094 24.963 60.3626 24.9531 60.6308C24.9531 64.2441 24.9531 67.8574 24.9531 71.4707C24.9439 71.7145 24.9524 71.9586 24.9785 72.2012C25.0742 72.8359 25.4336 73.2187 26.0938 73.248C26.7539 73.2773 27.1973 72.8769 27.2656 72.1914C27.373 71.0996 27.4375 70.0019 27.5078 68.9062C28.0469 60.2838 28.5846 51.6608 29.1211 43.0371C29.1406 42.7012 29.1211 42.3652 29.1211 41.9922H24.957V42.8535C24.957 46.6855 24.957 50.5182 24.957 54.3516C24.9672 54.6199 24.9529 54.8886 24.9141 55.1543C24.8805 55.3886 24.7629 55.6027 24.5833 55.7568C24.4037 55.9109 24.1742 55.9946 23.9375 55.9922C23.3848 56.0254 22.9805 55.7754 22.834 55.2324C22.7713 54.9465 22.7457 54.6537 22.7578 54.3613C22.7578 50.5527 22.7578 46.7441 22.7578 42.9355V41.959C22.0449 41.959 21.3906 41.959 20.748 41.959C18.1133 41.9453 16.6465 40.4648 16.625 37.8144C16.625 36.6191 16.6074 35.4219 16.625 34.2266C16.625 33.7617 16.5 33.5508 16.0059 33.5918C14.2891 33.7363 13.168 32.9512 12.5898 31.3496L12.5977 26.9531ZM81.3047 33.6348H18.8906C18.8906 35.3242 18.8223 36.9785 18.9395 38.6191C18.9668 39.0098 19.5703 39.4101 19.9922 39.6758C20.2441 39.8359 20.6563 39.7578 20.998 39.7578C40.3991 39.7578 59.8001 39.7578 79.2012 39.7578C79.5179 39.7677 79.8348 39.7501 80.1484 39.7051C80.7578 39.5976 81.2598 39.2148 81.2832 38.6211C81.3496 36.9766 81.3047 35.3242 81.3047 33.6348ZM71.0273 41.9922C71.0547 42.5449 71.0723 43.0058 71.1016 43.4668C71.2734 46.2012 71.4531 48.9199 71.623 51.6484C71.9863 57.4922 72.347 63.3372 72.7051 69.1836C72.7695 70.2051 72.8301 71.2285 72.9336 72.248C72.9443 72.5216 73.0629 72.7798 73.2635 72.9661C73.4641 73.1524 73.7303 73.2517 74.0039 73.2422C74.6582 73.2715 75.0625 72.9258 75.1934 72.291C75.2312 72.0501 75.2456 71.8061 75.2363 71.5625C75.2363 61.97 75.2363 52.3776 75.2363 42.7851C75.2363 42.5273 75.2129 42.2695 75.1973 41.9883L71.0273 41.9922Z" fill="#454545"/>
<path d="M24.2326 35.0083C25.1896 35.0083 26.1486 34.9946 27.1057 35.0083C28.0158 35.0259 28.5783 35.5044 28.59 36.229C28.6018 36.9536 28.0314 37.4712 27.1408 37.479C25.2241 37.4946 23.3081 37.4946 21.3928 37.479C20.5549 37.4692 20.0119 36.9634 20.0002 36.2661C19.9885 35.5688 20.5295 35.0415 21.3674 35.0161C22.3205 34.9868 23.2736 35.0083 24.2326 35.0083Z" fill="#FF7D04"/>
<path d="M32.2638 35.0161C32.6815 34.9946 33.1001 34.9946 33.5177 35.0161C34.2306 35.0884 34.7013 35.4849 34.7111 36.2271C34.7209 36.9692 34.258 37.3989 33.5392 37.4556C32.6745 37.5181 31.8063 37.5181 30.9416 37.4556C30.2756 37.4009 29.8556 36.9771 29.8459 36.2622C29.8361 35.5474 30.2521 35.145 30.9142 35.0415C31.3611 35.0027 31.8104 34.9981 32.258 35.0278L32.2638 35.0161Z" fill="#FF7D04"/>
</svg>
