<svg width="100" height="100" viewBox="0 0 100 100" fill="none" xmlns="http://www.w3.org/2000/svg">
<rect width="100" height="100" fill="none"/>
<path d="M20.6822 83.9901C20.1341 83.6178 19.998 83.101 20 82.4554C20.0187 74.9885 20.0227 67.5223 20.012 60.0568C20.012 58.8468 20.3261 58.5399 21.5625 58.5399H60.7202V57.1834C60.7202 55.4883 60.8523 55.3616 62.5948 55.3616H63.8792C64.0412 54.7675 64.3333 54.312 65.0015 54.312C65.6697 54.312 65.9658 54.7695 66.1278 55.3596H67.8143C67.9224 55.3596 68.0304 55.3457 68.2145 55.3319V51.4209C68.2145 51.0011 68.2145 50.5812 68.2145 50.1634C68.2345 49.4446 68.6726 48.9753 69.3048 49.001C69.905 49.0149 70.3411 49.4644 70.3491 50.1496C70.3631 51.7338 70.3491 53.3298 70.3491 54.92C70.3491 55.0309 70.3591 55.1398 70.3671 55.3042H72.4517C72.5878 54.7734 72.8799 54.314 73.5441 54.314C74.2083 54.314 74.5284 54.7457 74.6684 55.3636C75.3586 55.3636 76.0268 55.3636 76.695 55.3636C77.4512 55.3636 77.8394 55.7596 77.8494 56.5081C77.8594 57.1656 77.8494 57.823 77.8494 58.5419C78.1494 58.5419 78.3875 58.5419 78.6276 58.5419C79.6179 58.5537 79.98 58.9201 79.988 59.928V60.1261C79.988 67.5692 79.992 75.0136 80 82.4594C80 83.1049 79.856 83.6178 79.3238 84L20.6822 83.9901ZM77.8173 81.8395V60.7142H60.7582V81.8395H77.8173ZM39.2658 60.7063H22.2007V70.1739H39.2658V60.7063ZM22.1847 81.8217H39.2638V72.368H22.1847V81.8217ZM51.1253 60.6904V81.8158H58.5436V60.6904H51.1253ZM41.4865 60.6904V81.8158H48.9007V60.6904H41.4865ZM62.8749 58.4884H75.6787V57.53H62.8749V58.4884Z" fill="#454545"/>
<path d="M79.324 16C79.858 16.3735 80.002 16.8794 80 17.5136C79.9827 24.8508 79.9786 32.1874 79.988 39.5233C79.988 40.6712 79.654 41 78.4819 41H60.0815C58.9035 41 58.5754 40.679 58.5754 39.5292C58.5754 37.2743 58.5754 35.0195 58.5754 32.7198H41.433V33.4163C41.433 35.4994 41.433 37.583 41.433 39.6673C41.433 40.6089 41.055 40.9981 40.117 41C33.8502 41 27.58 41 21.3065 41C20.4025 41 20.0145 40.6109 20.0145 39.714C20.0145 32.2471 20.0098 24.7808 20.0005 17.3152C19.994 17.0585 20.0529 16.8043 20.1719 16.5752C20.2909 16.3461 20.4663 16.1492 20.6825 16.0019L79.324 16ZM39.259 18.1284H22.1985V38.8813H39.259V18.1284ZM77.7999 38.8833V18.1323H60.7435V38.8833H77.7999ZM41.479 18.1128V30.535H58.5314V18.1128H41.479Z" fill="#454545"/>
<path d="M62.0103 71.4651C62.0103 71.0498 61.9935 70.6344 62.0103 70.2214C62.0114 69.9076 62.1086 69.6063 62.2817 69.3797C62.4549 69.153 62.6908 69.0184 62.9409 69.0034C63.1924 68.9795 63.4412 69.0811 63.6332 69.286C63.8253 69.491 63.945 69.7827 63.9664 70.0978C64.0112 71.0303 64.0112 71.9653 63.9664 72.8978C63.9464 73.213 63.8277 73.5056 63.6363 73.7115C63.4448 73.9174 63.1962 74.02 62.9446 73.9968C62.6939 73.9866 62.456 73.8554 62.2805 73.6307C62.105 73.4059 62.0056 73.1049 62.0028 72.7904C61.9935 72.3424 62.0103 71.8991 62.0103 71.4651Z" fill="#FF7D04"/>
<path d="M30.9611 63.9901C30.6254 63.9901 30.2897 64.0124 29.9578 63.9901C29.8264 63.9863 29.6971 63.9565 29.5775 63.9025C29.4579 63.8485 29.3504 63.7713 29.2613 63.6755C29.1722 63.5797 29.1033 63.4672 29.0587 63.3446C29.014 63.222 28.9945 63.0918 29.0013 62.9617C29.0058 62.7091 29.1104 62.4685 29.2927 62.292C29.4749 62.1155 29.7199 62.0173 29.9747 62.0188C30.6648 61.9947 31.3568 61.9928 32.0376 62.0188C32.2922 62.0227 32.5352 62.125 32.7149 62.3038C32.8946 62.4827 32.9968 62.7241 32.9997 62.9766C33.0062 63.2289 32.9146 63.4741 32.7439 63.6613C32.5732 63.8486 32.3364 63.9636 32.0826 63.9826C31.7075 64.018 31.3324 63.9826 30.9574 63.9826L30.9611 63.9901Z" fill="#FF7D04"/>
<path d="M30.983 75.9863C30.6288 75.9863 30.2709 76.0123 29.9186 75.9863C29.6648 75.971 29.427 75.8583 29.2556 75.6721C29.0842 75.4859 28.9927 75.2408 29.0005 74.9889C28.9979 74.7364 29.0962 74.4932 29.2738 74.3123C29.4514 74.1314 29.694 74.0274 29.9486 74.023C30.657 73.9933 31.3709 73.9914 32.0792 74.023C32.3264 74.04 32.5581 74.1484 32.7286 74.3266C32.8991 74.5048 32.9959 74.74 32.9999 74.9855C33.0039 75.2311 32.9148 75.4692 32.7502 75.6528C32.5856 75.8364 32.3576 75.9521 32.1111 75.977C31.7369 76.0042 31.3613 76.0073 30.9867 75.9863H30.983Z" fill="#FF7D04"/>
<path d="M53.9917 71.5292C53.9917 71.9452 54.0103 72.3613 53.9917 72.775C53.9908 72.9377 53.9642 73.0985 53.9136 73.2482C53.863 73.398 53.7894 73.5336 53.6969 73.6475C53.6045 73.7613 53.4951 73.851 53.3749 73.9115C53.2548 73.972 53.1263 74.002 52.9969 73.9998C52.8674 74.0027 52.7387 73.9726 52.6186 73.9114C52.4986 73.8502 52.3896 73.7591 52.2982 73.6436C52.2069 73.5281 52.135 73.3906 52.087 73.2393C52.039 73.0881 52.0158 72.9261 52.0188 72.7633C51.9947 71.9078 51.9928 71.05 52.0188 70.1922C52.0232 69.8765 52.1252 69.5754 52.3034 69.3528C52.4815 69.1302 52.7216 69.0037 52.9727 69.0001C53.2232 68.9963 53.4658 69.1094 53.6537 69.3175C53.8416 69.5257 53.9614 69.814 53.9899 70.1267C53.9926 70.1781 53.9926 70.2296 53.9899 70.281V71.5268L53.9917 71.5292Z" fill="#FF7D04"/>
<path d="M46.013 71.4744C46.013 71.0329 45.9907 70.5891 46.013 70.1522C46.0236 69.8364 46.1326 69.5385 46.3164 69.323C46.5001 69.1074 46.7439 68.9916 46.995 69.0005C47.552 69.0238 47.9232 69.414 47.9622 70.0821C48.0126 71.0155 48.0126 71.9521 47.9622 72.8855C47.9451 73.2013 47.8291 73.4956 47.6398 73.7041C47.4506 73.9125 47.2033 74.018 46.9523 73.9975C46.7026 73.9887 46.4649 73.8603 46.2879 73.6384C46.1109 73.4165 46.0079 73.118 46 72.8037C46 72.7523 46 72.6986 46 72.6472V71.4791L46.013 71.4744Z" fill="#FF7D04"/>
<path d="M23.0173 28.4624C22.9997 28.0223 22.9997 27.5813 23.0173 27.1412C23.0354 26.8354 23.1434 26.5491 23.3202 26.3381C23.4971 26.1271 23.7301 26.0067 23.9737 26.0003C24.2173 25.9939 24.4541 26.1019 24.6379 26.3034C24.8216 26.5049 24.939 26.7853 24.9672 27.0898C25.0109 28.0227 25.0109 28.9581 24.9672 29.891C24.9473 30.2065 24.8294 30.4994 24.6392 30.7065C24.4489 30.9135 24.2015 31.0181 23.9505 30.9974C23.7002 30.9867 23.4629 30.855 23.2877 30.6299C23.1126 30.4047 23.0131 30.1033 23.0099 29.7883C22.9876 29.3494 23.0099 28.9083 23.0099 28.4671L23.0173 28.4624Z" fill="#FF7D04"/>
<path d="M63.9926 28.5547C63.9926 28.945 64.0093 29.3353 63.9926 29.7233C63.9554 30.5016 63.53 31.0204 62.969 30.9994C62.8396 30.9961 62.7119 30.9603 62.5936 30.8942C62.4753 30.8281 62.3686 30.733 62.2798 30.6144C62.1911 30.4957 62.1221 30.356 62.0768 30.2034C62.0315 30.0508 62.0108 29.8884 62.016 29.7256C61.9956 28.8959 61.9937 28.0639 62.016 27.2342C62.0138 27.0714 62.0376 26.9096 62.0861 26.7586C62.1346 26.6076 62.2067 26.4704 62.2983 26.3553C62.3898 26.2401 62.4988 26.1493 62.6189 26.0883C62.7389 26.0273 62.8674 25.9973 62.9969 26.0002C63.1264 25.9986 63.2549 26.0293 63.3749 26.0905C63.495 26.1516 63.6042 26.242 63.6964 26.3565C63.7886 26.471 63.8619 26.6072 63.9121 26.7575C63.9623 26.9077 63.9884 27.0689 63.9889 27.2319C64.0111 27.6713 63.9926 28.113 63.9926 28.5547Z" fill="#FF7D04"/>
<path d="M50.0114 27.0226C50.3674 27.0226 50.7234 26.9864 51.0776 27.0226C51.3319 27.0407 51.5712 27.2066 51.7437 27.4846C51.9162 27.7626 52.0081 28.1302 51.9994 28.508C51.9695 29.3425 51.6547 29.8988 51.1132 29.9489C50.3831 30.017 49.6509 30.017 48.9209 29.9489C48.666 29.9323 48.426 29.7662 48.2535 29.4872C48.0811 29.2082 47.9902 28.8391 48.0008 28.4607C48.0024 28.0862 48.1003 27.7268 48.2744 27.4559C48.4485 27.1849 48.6858 27.023 48.9377 27.0031C48.9795 26.999 49.0215 26.999 49.0633 27.0031H50.0001L50.0114 27.0226Z" fill="#FF7D04"/>
</svg>
