<svg width="100" height="100" viewBox="0 0 100 100" fill="none" xmlns="http://www.w3.org/2000/svg">
<path d="M39.4043 84.2656C38.002 84.0879 36.5918 83.9473 35.1953 83.7246C32.3034 83.2723 29.4756 82.4777 26.7715 81.3574C25.3281 80.7578 24.623 79.625 24.623 78.0703C24.623 72.5899 24.623 67.11 24.623 61.6309C24.623 48.6504 24.623 35.6712 24.623 22.6934C24.623 20.5449 25.2695 19.5684 27.2617 18.8066C36.9219 15.1608 46.5768 15.1823 56.2266 18.8711C58 19.5488 58.7012 20.6172 58.7012 22.5371C58.7012 26.041 58.7012 29.5449 58.7012 33.1465H59.4316C63.3809 33.1465 67.332 33.1152 71.2793 33.1621C73.1797 33.1855 74.584 34.1387 75.3457 35.8965C76.1074 37.6543 75.8125 39.293 74.5644 40.7285C73.6387 41.793 72.416 42.2422 71.0117 42.2363C67.1738 42.2227 63.3359 42.2363 59.4883 42.2363H58.6914V77.6699C58.6914 79.834 58.0156 80.8164 55.998 81.5899C52.3134 83.0159 48.4355 83.8803 44.4941 84.1543C44.2966 84.1784 44.1008 84.2156 43.9082 84.2656H39.4043ZM56.4453 33.1445V22.5527C56.4453 21.5645 56.2852 21.3125 55.3672 20.9648C46.2331 17.5 37.099 17.5052 27.9648 20.9805C27.0566 21.3301 26.9023 21.5664 26.9023 22.5059V77.8789C26.9023 78.793 27.0684 79.0508 27.916 79.3691C37.043 82.8848 46.1777 82.8711 55.3184 79.4277C56.2949 79.0606 56.4453 78.8203 56.4453 77.7363V42.2539C56.1699 42.2402 55.9766 42.2246 55.7812 42.2227C53.8945 42.2227 52.0098 42.2344 50.1172 42.2129C49.9348 42.1964 49.7516 42.2334 49.5899 42.3194C49.4282 42.4054 49.2952 42.5368 49.207 42.6973C47.4297 45.3223 44.9453 46.7012 41.7656 46.7598C39.8786 46.7822 38.0315 46.2158 36.4814 45.1395C34.9313 44.0631 33.7552 42.5304 33.1169 40.7545C32.4785 38.9786 32.4095 37.0479 32.9196 35.231C33.4297 33.4141 34.4935 31.8013 35.9629 30.6172C40.1855 27.2363 46.2344 28.1934 49.2539 32.707C49.3809 32.9023 49.6348 33.1231 49.8398 33.127C52.0039 33.1563 54.1758 33.1445 56.4453 33.1445ZM56.4297 39.9512H57.8281C62.2637 39.9512 66.7012 39.9512 71.1367 39.9512C72.9238 39.9512 74.0254 38.1816 73.2148 36.6504C72.7559 35.7832 71.9902 35.418 71.0215 35.418H41.7969C41.6861 35.4144 41.5752 35.4177 41.4648 35.4277C40.5527 35.5469 39.8906 36.0137 39.5488 36.8731C38.9395 38.3965 40.0566 39.9473 41.7793 39.9512C46.6641 39.959 51.5449 39.9512 56.4238 39.9512H56.4297ZM46.7148 33.1465C45.757 32.0758 44.4845 31.3361 43.08 31.0339C41.6755 30.7317 40.2114 30.8824 38.8979 31.4644C37.5844 32.0464 36.4892 33.0297 35.7696 34.2731C35.0499 35.5165 34.7429 36.956 34.8926 38.3848C35.1387 41.2363 37.3105 43.6758 40.1875 44.332C42.5762 44.877 45.5957 43.9102 46.6094 42.2227H46.0664C44.5371 42.2227 43.0059 42.2363 41.4785 42.207C40.8315 42.2045 40.1939 42.0521 39.6158 41.7617C39.0377 41.4712 38.5347 41.0508 38.1465 40.5332C37.0078 39.084 36.7891 37.459 37.5605 35.7871C38.332 34.1152 39.752 33.2031 41.623 33.1563C43.2734 33.1133 44.9219 33.1465 46.709 33.1465H46.7148Z" fill="#454545"/>
<path d="M42.0664 55.8789C43.461 55.9375 44.8184 56.6992 45.6524 58.252C46.4863 59.8047 46.377 61.3906 45.457 62.9258C45.2426 63.2969 45.1176 63.7128 45.0918 64.1406C45.0274 65.332 45.1152 66.5371 44.9981 67.7227C44.8379 69.3359 43.5156 70.4922 41.8555 70.625C41.0863 70.6696 40.3249 70.4513 39.6963 70.0058C39.0677 69.5603 38.6093 68.9143 38.3965 68.1738C38.3007 67.7872 38.2515 67.3905 38.25 66.9922C38.2266 66.2832 38.2207 65.5742 38.25 64.8652C38.2992 64.0583 38.1061 63.255 37.6953 62.5586C35.9824 59.5586 38.2324 55.8594 42.0664 55.8789ZM41.707 58.1485C40.7617 58.1602 40.041 58.5703 39.6309 59.4317C39.2207 60.293 39.3086 61.1895 39.9824 61.8965C40.1736 62.094 40.3214 62.3293 40.4163 62.5873C40.5111 62.8453 40.551 63.1202 40.5332 63.3945C40.5137 64.5918 40.502 65.7891 40.5449 66.9844C40.5567 67.334 40.6621 67.8008 40.9024 67.9922C41.2335 68.2241 41.6417 68.3186 42.041 68.2559C42.5781 68.1641 42.7949 67.6699 42.8008 67.1445C42.8106 65.9727 42.8262 64.8008 42.8008 63.6289C42.7852 62.9375 42.9043 62.3594 43.4141 61.8164C44.0449 61.1485 44.1094 60.3008 43.7149 59.4727C43.5476 59.0789 43.2679 58.7431 42.9108 58.5076C42.5536 58.272 42.1349 58.1471 41.707 58.1485Z" fill="#FF7D04"/>
<path d="M41.3086 20.6426C41.5188 20.6402 41.7287 20.6579 41.9356 20.6953C42.1969 20.7526 42.4274 20.9052 42.5824 21.1233C42.7373 21.3414 42.8054 21.6094 42.7734 21.875C42.7129 22.4609 42.3828 22.8516 41.8066 22.8828C39.5292 22.9849 37.2725 23.3626 35.0859 24.0078C34.4824 24.1895 33.9316 23.8125 33.7578 23.2129C33.7104 23.0695 33.694 22.9177 33.7099 22.7675C33.7257 22.6174 33.7734 22.4723 33.8497 22.342C33.9261 22.2117 34.0293 22.0992 34.1525 22.0119C34.2758 21.9246 34.4162 21.8647 34.5645 21.8359C36.2832 21.4453 38.0156 21.1016 39.7481 20.7676C40.2657 20.699 40.7866 20.6572 41.3086 20.6426Z" fill="#FF7D04"/>
<path d="M30.3047 22.9199C30.606 22.924 30.8934 23.0474 31.1039 23.2631C31.3144 23.4787 31.4309 23.769 31.4277 24.0703C31.429 24.2141 31.4019 24.3568 31.348 24.4901C31.2941 24.6234 31.2145 24.7448 31.1136 24.8473C31.0127 24.9498 30.8927 25.0314 30.7602 25.0874C30.6278 25.1434 30.4856 25.1728 30.3418 25.1738C30.1923 25.1798 30.0432 25.156 29.903 25.1038C29.7629 25.0516 29.6345 24.9719 29.5254 24.8696C29.4164 24.7672 29.3287 24.6442 29.2677 24.5077C29.2067 24.3711 29.1734 24.2238 29.1699 24.0742C29.1743 23.7728 29.2947 23.4846 29.506 23.2697C29.7173 23.0547 30.0034 22.9294 30.3047 22.9199Z" fill="#FF7D04"/>
</svg>
