<svg width="100" height="100" viewBox="0 0 100 100" fill="none" xmlns="http://www.w3.org/2000/svg">
<path d="M76.0254 12.5977H83.0566C83.9766 13.043 84.168 13.8145 84.168 14.7715C84.1523 36.86 84.1484 58.9479 84.1562 81.0352C84.1562 81.2051 84.1562 81.377 84.1562 81.5469C84.0977 82.6348 83.5293 83.1836 82.4316 83.2012C81.7852 83.2109 81.1367 83.2012 80.4453 83.2012C80.4453 84.1387 80.4453 84.959 80.4453 85.793C80.4336 87.0293 79.8848 87.5938 78.6582 87.5938H21.541C20.3164 87.5938 19.7656 87.0274 19.7559 85.791C19.7559 84.9453 19.7559 84.0996 19.7559 83.2012H18.0586C16.5547 83.2012 16.041 82.6934 16.041 81.1797C16.041 58.9948 16.0365 36.8092 16.0273 14.623C16.0273 13.6992 16.2969 13.0137 17.1387 12.5957H71.6309C72.1621 12.9375 72.5508 13.377 72.3164 14.0449C72.082 14.7129 71.5176 14.8262 70.8848 14.7988C70.1289 14.7754 69.3711 14.7988 68.6152 14.7988H64.4297V76.5742H81.9121V14.7949C80.2109 14.7949 78.5566 14.7949 76.9023 14.7949C76.2871 14.7949 75.709 14.7598 75.4414 14.0898C75.1738 13.4199 75.5664 12.9941 76.0254 12.5977ZM57.7871 76.5859V64.6719C57.7871 63.5566 58.1523 63.0137 58.8887 63.0156C59.625 63.0176 59.9844 63.5566 59.9863 64.6758C59.9863 68.362 59.9863 72.0482 59.9863 75.7344C59.9863 76.0137 60.0098 76.293 60.0234 76.5664H62.1445V14.8438H59.9863V15.9141C59.9863 29.9974 59.9863 44.0814 59.9863 58.166C59.9995 58.5073 59.9831 58.849 59.9375 59.1875C59.91 59.4344 59.7894 59.6614 59.6004 59.8225C59.4113 59.9836 59.168 60.0667 58.9199 60.0547C58.6597 60.0815 58.3995 60.004 58.1963 59.8393C57.9931 59.6745 57.8635 59.4359 57.8359 59.1758C57.7925 58.862 57.7775 58.545 57.791 58.2285C57.791 44.0957 57.791 29.9629 57.791 15.8301V14.8438H40.2715V76.5859H57.7871ZM37.9785 24.5918H35.8457C33.0137 24.5918 30.1816 24.5918 27.3535 24.5918C26.4746 24.5918 25.9766 24.1191 26.0332 23.3926C26.082 22.7539 26.5195 22.4023 27.3203 22.4004C30.5898 22.4004 33.86 22.4004 37.1309 22.4004H37.9473V14.8438H18.291V22.3984H19.1289C20.0801 22.3984 21.0332 22.3809 21.9844 22.4121C22.6055 22.4336 22.9766 22.8027 23.0137 23.4277C23.0508 24.0527 22.6953 24.4316 22.0996 24.5645C21.8585 24.5997 21.6143 24.6095 21.3711 24.5938H18.2871V41.418H23.3945C23.7969 38.6172 24.2227 35.8496 24.5781 33.0742C24.707 32.0801 25.0332 31.3398 26.1406 31.1367C25.8184 30.1719 25.502 29.2773 25.2227 28.373C25.002 27.6563 25.2715 27.0859 25.877 26.873C26.4824 26.6602 27.0488 26.9707 27.293 27.6699C27.6125 28.4604 27.8806 29.2707 28.0957 30.0957C28.291 30.959 28.6816 31.2676 29.584 31.209C30.6816 31.127 31.2012 31.6309 31.3594 32.707C31.6094 34.3965 31.8437 36.0859 32.0879 37.7852C32.2637 39.0059 32.4453 40.2246 32.6211 41.418H37.9746L37.9785 24.5918ZM21.9824 85.3516H78.1836V83.2031H42.3926C42.1719 83.2031 41.9531 83.2031 41.7324 83.2031C41 83.168 40.5469 82.7285 40.5605 82.0781C40.5742 81.4277 41.0137 81.0469 41.7148 81.0117C41.9336 81 42.1543 81.0117 42.373 81.0117H81.9199V78.8633H18.2773V81.0117H35.9492C36.1686 81.001 36.3885 81.0049 36.6074 81.0234C37.2246 81.1094 37.5957 81.4863 37.6055 82.0957C37.6152 82.7051 37.25 83.0938 36.6289 83.1934C36.4102 83.2152 36.1902 83.2205 35.9707 83.209H21.9824V85.3516ZM37.9707 61.2793H18.2793V67.7734H37.9707V61.2793ZM18.3008 70.043V76.5625H37.9492V70.0391L18.3008 70.043ZM37.9883 48.1074H18.2891V54.6387H21.2188C21.2188 53.8359 21.2188 53.1328 21.2188 52.4297C21.2188 50.9121 21.8906 50.2461 23.4082 50.2461C26.4824 50.2461 29.5573 50.2461 32.6328 50.2461C34.1309 50.2461 34.8262 50.9375 34.8398 52.4316C34.8398 53.1524 34.8398 53.8731 34.8398 54.5801H37.9883V48.1074ZM18.2617 45.791H37.9648V43.7109H18.2617V45.791ZM18.2793 58.9844H37.9707V56.8867H18.2793V58.9844ZM30.3887 41.4219C29.998 38.7168 29.6289 36.0742 29.2461 33.3809C28.5547 33.3809 27.9238 33.4063 27.293 33.3809C26.8438 33.3555 26.707 33.5488 26.6602 33.9668C26.6074 34.5527 26.5059 35.125 26.4258 35.7031C26.1582 37.6016 25.8906 39.5 25.6191 41.4375L30.3887 41.4219ZM32.5957 52.4863H23.4648V54.5938H32.5996L32.5957 52.4863Z" fill="#454545"/>
<path d="M68.7734 45.7559C68.7734 46.6562 68.7832 47.5586 68.7734 48.4609C68.7637 49.3633 68.3984 49.8125 67.6973 49.8281C66.9961 49.8437 66.5898 49.3906 66.584 48.5059C66.5697 46.6283 66.5697 44.7513 66.584 42.875C66.584 42.0332 66.9746 41.5957 67.6562 41.584C68.3672 41.5723 68.7578 42.0195 68.7734 42.9062C68.7852 43.8535 68.7734 44.8047 68.7734 45.7559Z" fill="#FF7D04"/>
<path d="M55.5918 45.6855C55.5918 46.5859 55.5918 47.4883 55.5918 48.3906C55.582 49.3672 55.2324 49.8145 54.5117 49.8242C53.791 49.834 53.4023 49.3691 53.3984 48.4258C53.388 46.6237 53.388 44.8197 53.3984 43.0137C53.3984 42.0469 53.7559 41.5918 54.4785 41.5801C55.2012 41.5684 55.5859 42.0449 55.5938 43.0508C55.5957 43.9297 55.5918 44.8066 55.5918 45.6855Z" fill="#FF7D04"/>
<path d="M27.9883 20.1973C26.8438 20.1973 25.6973 20.1973 24.5528 20.1973C23.7364 20.1973 23.2774 19.793 23.2676 19.1211C23.2578 18.4492 23.7227 18.0098 24.5196 18.0078C26.8334 17.9974 29.1485 17.9974 31.4649 18.0078C32.2461 18.0078 32.7578 18.4453 32.7676 19.0898C32.7793 19.7637 32.2676 20.1953 31.4258 20.2012C30.2735 20.2031 29.1348 20.1973 27.9883 20.1973Z" fill="#FF7D04"/>
<path d="M27.9121 66.1875C26.791 66.1875 25.6699 66.1875 24.5488 66.1875C23.7324 66.1875 23.2754 65.7969 23.2676 65.1113C23.2597 64.4258 23.7207 64 24.5215 63.9961C26.8366 63.9844 29.1517 63.9844 31.4668 63.9961C32.248 63.9961 32.7578 64.4414 32.7676 65.084C32.7676 65.7598 32.2695 66.1836 31.4219 66.1875C30.2519 66.1973 29.082 66.1875 27.9121 66.1875Z" fill="#FF7D04"/>
<path d="M28.0156 74.4141C26.8437 74.4141 25.6719 74.4141 24.5 74.4141C23.7187 74.4141 23.2852 74.0234 23.2637 73.3691C23.2402 72.6895 23.7012 72.2305 24.4863 72.2266C26.8301 72.2135 29.1699 72.2135 31.5059 72.2266C32.2871 72.2266 32.7793 72.709 32.7598 73.3574C32.7402 74.0059 32.2695 74.4141 31.5234 74.4141C30.3555 74.4277 29.1855 74.4141 28.0156 74.4141Z" fill="#FF7D04"/>
</svg>
